M48
; DRILL file {KiCad 9.0.4} date 2026-10-05T15:23:22-0400
; FORMAT={-:-/ absolute / metric / decimal}
; #@! TF.CreationDate,2026-10-05T15:23:22-04:00
; #@! TF.GenerationSoftware,Kicad,Pcbnew,9.0.4
; #@! TF.FileFunction,MixedPlating,1,2
FMAT,2
METRIC
; #@! TA.AperFunction,Plated,PTH,ViaDrill
T1C0.300
; #@! TA.AperFunction,Plated,PTH,ComponentDrill
T2C0.900
; #@! TA.AperFunction,Plated,PTH,ComponentDrill
T3C1.000
; #@! TA.AperFunction,Plated,PTH,ComponentDrill
T4C1.800
; #@! TA.AperFunction,NonPlated,NPTH,ComponentDrill
T5C3.200
%
G90
G05
T1
X17.234Y-19.73
X42.064Y-45.064
X47.144Y-45.064
X56.045Y-51.93
T2
X13.0Y-16.0
X13.0Y-18.54
X13.0Y-21.08
X13.0Y-23.62
X13.0Y-26.16
X13.0Y-28.7
X13.0Y-31.24
X28.24Y-16.0
X28.24Y-18.54
X28.24Y-21.08
X28.24Y-23.62
X28.24Y-26.16
X28.24Y-28.7
X28.24Y-31.24
T3
X47.0Y-25.0
X47.0Y-27.54
X47.0Y-30.08
X62.24Y-25.0
X62.24Y-30.08
X70.0Y-39.0
X70.0Y-41.54
X70.0Y-44.08
X70.0Y-46.62
X70.0Y-49.16
T4
X54.62Y-21.19
X54.62Y-33.89
T5
X9.0Y-60.0
X81.0Y-60.0
M30
