%TF.GenerationSoftware,KiCad,Pcbnew,9.0.4*%
%TF.CreationDate,2026-10-05T15:23:22-04:00*%
%TF.ProjectId,signal-lost,7369676e-616c-42d6-9c6f-73742e6b6963,rev?*%
%TF.SameCoordinates,Original*%
%TF.FileFunction,Legend,Top*%
%TF.FilePolarity,Positive*%
%FSLAX46Y46*%
G04 Gerber Fmt 4.6, Leading zero omitted, Abs format (unit mm)*
G04 Created by KiCad (PCBNEW 9.0.4) date 2026-10-05 15:23:22*
%MOMM*%
%LPD*%
G01*
G04 APERTURE LIST*
%ADD10C,0.160000*%
%ADD11C,0.140000*%
%ADD12C,0.130000*%
%ADD13C,0.238000*%
%ADD14C,0.120000*%
%ADD15C,10.000000*%
G04 APERTURE END LIST*
D10*
X30000000Y-47000000D02*
X35000000Y-47000000D01*
X14000000Y-45000000D02*
X17000000Y-48000000D01*
X17000000Y-48000000D02*
X25000000Y-48000000D01*
X35000000Y-47000000D02*
X37000000Y-45000000D01*
X7000000Y-45000000D02*
X14000000Y-45000000D01*
D11*
X14957142Y-38050577D02*
X14861904Y-38002958D01*
X14861904Y-38002958D02*
X14766666Y-37907720D01*
X14766666Y-37907720D02*
X14623809Y-37764862D01*
X14623809Y-37764862D02*
X14528571Y-37717243D01*
X14528571Y-37717243D02*
X14433333Y-37717243D01*
X14480952Y-37955339D02*
X14385714Y-37907720D01*
X14385714Y-37907720D02*
X14290476Y-37812481D01*
X14290476Y-37812481D02*
X14242857Y-37622005D01*
X14242857Y-37622005D02*
X14242857Y-37288672D01*
X14242857Y-37288672D02*
X14290476Y-37098196D01*
X14290476Y-37098196D02*
X14385714Y-37002958D01*
X14385714Y-37002958D02*
X14480952Y-36955339D01*
X14480952Y-36955339D02*
X14671428Y-36955339D01*
X14671428Y-36955339D02*
X14766666Y-37002958D01*
X14766666Y-37002958D02*
X14861904Y-37098196D01*
X14861904Y-37098196D02*
X14909523Y-37288672D01*
X14909523Y-37288672D02*
X14909523Y-37622005D01*
X14909523Y-37622005D02*
X14861904Y-37812481D01*
X14861904Y-37812481D02*
X14766666Y-37907720D01*
X14766666Y-37907720D02*
X14671428Y-37955339D01*
X14671428Y-37955339D02*
X14480952Y-37955339D01*
X15195238Y-36955339D02*
X15766666Y-36955339D01*
X15480952Y-37955339D02*
X15480952Y-36955339D01*
X16861905Y-37955339D02*
X16861905Y-36955339D01*
X16861905Y-36955339D02*
X17242857Y-36955339D01*
X17242857Y-36955339D02*
X17338095Y-37002958D01*
X17338095Y-37002958D02*
X17385714Y-37050577D01*
X17385714Y-37050577D02*
X17433333Y-37145815D01*
X17433333Y-37145815D02*
X17433333Y-37288672D01*
X17433333Y-37288672D02*
X17385714Y-37383910D01*
X17385714Y-37383910D02*
X17338095Y-37431529D01*
X17338095Y-37431529D02*
X17242857Y-37479148D01*
X17242857Y-37479148D02*
X16861905Y-37479148D01*
X18052381Y-37479148D02*
X18052381Y-37955339D01*
X17719048Y-36955339D02*
X18052381Y-37479148D01*
X18052381Y-37479148D02*
X18385714Y-36955339D01*
X19480953Y-37431529D02*
X19814286Y-37431529D01*
X19957143Y-37955339D02*
X19480953Y-37955339D01*
X19480953Y-37955339D02*
X19480953Y-36955339D01*
X19480953Y-36955339D02*
X19957143Y-36955339D01*
X20338096Y-37907720D02*
X20480953Y-37955339D01*
X20480953Y-37955339D02*
X20719048Y-37955339D01*
X20719048Y-37955339D02*
X20814286Y-37907720D01*
X20814286Y-37907720D02*
X20861905Y-37860100D01*
X20861905Y-37860100D02*
X20909524Y-37764862D01*
X20909524Y-37764862D02*
X20909524Y-37669624D01*
X20909524Y-37669624D02*
X20861905Y-37574386D01*
X20861905Y-37574386D02*
X20814286Y-37526767D01*
X20814286Y-37526767D02*
X20719048Y-37479148D01*
X20719048Y-37479148D02*
X20528572Y-37431529D01*
X20528572Y-37431529D02*
X20433334Y-37383910D01*
X20433334Y-37383910D02*
X20385715Y-37336291D01*
X20385715Y-37336291D02*
X20338096Y-37241053D01*
X20338096Y-37241053D02*
X20338096Y-37145815D01*
X20338096Y-37145815D02*
X20385715Y-37050577D01*
X20385715Y-37050577D02*
X20433334Y-37002958D01*
X20433334Y-37002958D02*
X20528572Y-36955339D01*
X20528572Y-36955339D02*
X20766667Y-36955339D01*
X20766667Y-36955339D02*
X20909524Y-37002958D01*
X21338096Y-37955339D02*
X21338096Y-36955339D01*
X21338096Y-36955339D02*
X21719048Y-36955339D01*
X21719048Y-36955339D02*
X21814286Y-37002958D01*
X21814286Y-37002958D02*
X21861905Y-37050577D01*
X21861905Y-37050577D02*
X21909524Y-37145815D01*
X21909524Y-37145815D02*
X21909524Y-37288672D01*
X21909524Y-37288672D02*
X21861905Y-37383910D01*
X21861905Y-37383910D02*
X21814286Y-37431529D01*
X21814286Y-37431529D02*
X21719048Y-37479148D01*
X21719048Y-37479148D02*
X21338096Y-37479148D01*
X22242858Y-36955339D02*
X22861905Y-36955339D01*
X22861905Y-36955339D02*
X22528572Y-37336291D01*
X22528572Y-37336291D02*
X22671429Y-37336291D01*
X22671429Y-37336291D02*
X22766667Y-37383910D01*
X22766667Y-37383910D02*
X22814286Y-37431529D01*
X22814286Y-37431529D02*
X22861905Y-37526767D01*
X22861905Y-37526767D02*
X22861905Y-37764862D01*
X22861905Y-37764862D02*
X22814286Y-37860100D01*
X22814286Y-37860100D02*
X22766667Y-37907720D01*
X22766667Y-37907720D02*
X22671429Y-37955339D01*
X22671429Y-37955339D02*
X22385715Y-37955339D01*
X22385715Y-37955339D02*
X22290477Y-37907720D01*
X22290477Y-37907720D02*
X22242858Y-37860100D01*
X23242858Y-37050577D02*
X23290477Y-37002958D01*
X23290477Y-37002958D02*
X23385715Y-36955339D01*
X23385715Y-36955339D02*
X23623810Y-36955339D01*
X23623810Y-36955339D02*
X23719048Y-37002958D01*
X23719048Y-37002958D02*
X23766667Y-37050577D01*
X23766667Y-37050577D02*
X23814286Y-37145815D01*
X23814286Y-37145815D02*
X23814286Y-37241053D01*
X23814286Y-37241053D02*
X23766667Y-37383910D01*
X23766667Y-37383910D02*
X23195239Y-37955339D01*
X23195239Y-37955339D02*
X23814286Y-37955339D01*
X24242858Y-37574386D02*
X25004763Y-37574386D01*
X25433334Y-37907720D02*
X25576191Y-37955339D01*
X25576191Y-37955339D02*
X25814286Y-37955339D01*
X25814286Y-37955339D02*
X25909524Y-37907720D01*
X25909524Y-37907720D02*
X25957143Y-37860100D01*
X25957143Y-37860100D02*
X26004762Y-37764862D01*
X26004762Y-37764862D02*
X26004762Y-37669624D01*
X26004762Y-37669624D02*
X25957143Y-37574386D01*
X25957143Y-37574386D02*
X25909524Y-37526767D01*
X25909524Y-37526767D02*
X25814286Y-37479148D01*
X25814286Y-37479148D02*
X25623810Y-37431529D01*
X25623810Y-37431529D02*
X25528572Y-37383910D01*
X25528572Y-37383910D02*
X25480953Y-37336291D01*
X25480953Y-37336291D02*
X25433334Y-37241053D01*
X25433334Y-37241053D02*
X25433334Y-37145815D01*
X25433334Y-37145815D02*
X25480953Y-37050577D01*
X25480953Y-37050577D02*
X25528572Y-37002958D01*
X25528572Y-37002958D02*
X25623810Y-36955339D01*
X25623810Y-36955339D02*
X25861905Y-36955339D01*
X25861905Y-36955339D02*
X26004762Y-37002958D01*
X26338096Y-36955339D02*
X26957143Y-36955339D01*
X26957143Y-36955339D02*
X26623810Y-37336291D01*
X26623810Y-37336291D02*
X26766667Y-37336291D01*
X26766667Y-37336291D02*
X26861905Y-37383910D01*
X26861905Y-37383910D02*
X26909524Y-37431529D01*
X26909524Y-37431529D02*
X26957143Y-37526767D01*
X26957143Y-37526767D02*
X26957143Y-37764862D01*
X26957143Y-37764862D02*
X26909524Y-37860100D01*
X26909524Y-37860100D02*
X26861905Y-37907720D01*
X26861905Y-37907720D02*
X26766667Y-37955339D01*
X26766667Y-37955339D02*
X26480953Y-37955339D01*
X26480953Y-37955339D02*
X26385715Y-37907720D01*
X26385715Y-37907720D02*
X26338096Y-37860100D01*
D12*
X42095238Y-55825240D02*
X42209524Y-55863335D01*
X42209524Y-55863335D02*
X42400000Y-55863335D01*
X42400000Y-55863335D02*
X42476191Y-55825240D01*
X42476191Y-55825240D02*
X42514286Y-55787144D01*
X42514286Y-55787144D02*
X42552381Y-55710954D01*
X42552381Y-55710954D02*
X42552381Y-55634763D01*
X42552381Y-55634763D02*
X42514286Y-55558573D01*
X42514286Y-55558573D02*
X42476191Y-55520478D01*
X42476191Y-55520478D02*
X42400000Y-55482382D01*
X42400000Y-55482382D02*
X42247619Y-55444287D01*
X42247619Y-55444287D02*
X42171429Y-55406192D01*
X42171429Y-55406192D02*
X42133334Y-55368097D01*
X42133334Y-55368097D02*
X42095238Y-55291906D01*
X42095238Y-55291906D02*
X42095238Y-55215716D01*
X42095238Y-55215716D02*
X42133334Y-55139525D01*
X42133334Y-55139525D02*
X42171429Y-55101430D01*
X42171429Y-55101430D02*
X42247619Y-55063335D01*
X42247619Y-55063335D02*
X42438096Y-55063335D01*
X42438096Y-55063335D02*
X42552381Y-55101430D01*
X42895239Y-55863335D02*
X42895239Y-55063335D01*
X43695238Y-55101430D02*
X43619048Y-55063335D01*
X43619048Y-55063335D02*
X43504762Y-55063335D01*
X43504762Y-55063335D02*
X43390476Y-55101430D01*
X43390476Y-55101430D02*
X43314286Y-55177620D01*
X43314286Y-55177620D02*
X43276191Y-55253811D01*
X43276191Y-55253811D02*
X43238095Y-55406192D01*
X43238095Y-55406192D02*
X43238095Y-55520478D01*
X43238095Y-55520478D02*
X43276191Y-55672859D01*
X43276191Y-55672859D02*
X43314286Y-55749049D01*
X43314286Y-55749049D02*
X43390476Y-55825240D01*
X43390476Y-55825240D02*
X43504762Y-55863335D01*
X43504762Y-55863335D02*
X43580953Y-55863335D01*
X43580953Y-55863335D02*
X43695238Y-55825240D01*
X43695238Y-55825240D02*
X43733334Y-55787144D01*
X43733334Y-55787144D02*
X43733334Y-55520478D01*
X43733334Y-55520478D02*
X43580953Y-55520478D01*
X44076191Y-55863335D02*
X44076191Y-55063335D01*
X44076191Y-55063335D02*
X44533334Y-55863335D01*
X44533334Y-55863335D02*
X44533334Y-55063335D01*
X44876190Y-55634763D02*
X45257143Y-55634763D01*
X44800000Y-55863335D02*
X45066667Y-55063335D01*
X45066667Y-55063335D02*
X45333333Y-55863335D01*
X45980952Y-55863335D02*
X45600000Y-55863335D01*
X45600000Y-55863335D02*
X45600000Y-55063335D01*
X46835715Y-19509597D02*
X47350001Y-19509597D01*
X47092858Y-20409597D02*
X47092858Y-19509597D01*
X47650000Y-19509597D02*
X47650000Y-20238168D01*
X47650000Y-20238168D02*
X47692857Y-20323882D01*
X47692857Y-20323882D02*
X47735715Y-20366740D01*
X47735715Y-20366740D02*
X47821429Y-20409597D01*
X47821429Y-20409597D02*
X47992857Y-20409597D01*
X47992857Y-20409597D02*
X48078572Y-20366740D01*
X48078572Y-20366740D02*
X48121429Y-20323882D01*
X48121429Y-20323882D02*
X48164286Y-20238168D01*
X48164286Y-20238168D02*
X48164286Y-19509597D01*
X48592857Y-20409597D02*
X48592857Y-19509597D01*
X48592857Y-19509597D02*
X49107143Y-20409597D01*
X49107143Y-20409597D02*
X49107143Y-19509597D01*
X49535714Y-19938168D02*
X49835714Y-19938168D01*
X49964286Y-20409597D02*
X49535714Y-20409597D01*
X49535714Y-20409597D02*
X49535714Y-19509597D01*
X49535714Y-19509597D02*
X49964286Y-19509597D01*
X51678571Y-19466740D02*
X50907143Y-20623882D01*
X52664285Y-20409597D02*
X52664285Y-19509597D01*
X52664285Y-19509597D02*
X53007142Y-19509597D01*
X53007142Y-19509597D02*
X53092857Y-19552454D01*
X53092857Y-19552454D02*
X53135714Y-19595311D01*
X53135714Y-19595311D02*
X53178571Y-19681025D01*
X53178571Y-19681025D02*
X53178571Y-19809597D01*
X53178571Y-19809597D02*
X53135714Y-19895311D01*
X53135714Y-19895311D02*
X53092857Y-19938168D01*
X53092857Y-19938168D02*
X53007142Y-19981025D01*
X53007142Y-19981025D02*
X52664285Y-19981025D01*
X54078571Y-20409597D02*
X53778571Y-19981025D01*
X53564285Y-20409597D02*
X53564285Y-19509597D01*
X53564285Y-19509597D02*
X53907142Y-19509597D01*
X53907142Y-19509597D02*
X53992857Y-19552454D01*
X53992857Y-19552454D02*
X54035714Y-19595311D01*
X54035714Y-19595311D02*
X54078571Y-19681025D01*
X54078571Y-19681025D02*
X54078571Y-19809597D01*
X54078571Y-19809597D02*
X54035714Y-19895311D01*
X54035714Y-19895311D02*
X53992857Y-19938168D01*
X53992857Y-19938168D02*
X53907142Y-19981025D01*
X53907142Y-19981025D02*
X53564285Y-19981025D01*
X54464285Y-19938168D02*
X54764285Y-19938168D01*
X54892857Y-20409597D02*
X54464285Y-20409597D01*
X54464285Y-20409597D02*
X54464285Y-19509597D01*
X54464285Y-19509597D02*
X54892857Y-19509597D01*
X55235714Y-20366740D02*
X55364286Y-20409597D01*
X55364286Y-20409597D02*
X55578571Y-20409597D01*
X55578571Y-20409597D02*
X55664286Y-20366740D01*
X55664286Y-20366740D02*
X55707143Y-20323882D01*
X55707143Y-20323882D02*
X55750000Y-20238168D01*
X55750000Y-20238168D02*
X55750000Y-20152454D01*
X55750000Y-20152454D02*
X55707143Y-20066740D01*
X55707143Y-20066740D02*
X55664286Y-20023882D01*
X55664286Y-20023882D02*
X55578571Y-19981025D01*
X55578571Y-19981025D02*
X55407143Y-19938168D01*
X55407143Y-19938168D02*
X55321428Y-19895311D01*
X55321428Y-19895311D02*
X55278571Y-19852454D01*
X55278571Y-19852454D02*
X55235714Y-19766740D01*
X55235714Y-19766740D02*
X55235714Y-19681025D01*
X55235714Y-19681025D02*
X55278571Y-19595311D01*
X55278571Y-19595311D02*
X55321428Y-19552454D01*
X55321428Y-19552454D02*
X55407143Y-19509597D01*
X55407143Y-19509597D02*
X55621428Y-19509597D01*
X55621428Y-19509597D02*
X55750000Y-19552454D01*
X56092857Y-20366740D02*
X56221429Y-20409597D01*
X56221429Y-20409597D02*
X56435714Y-20409597D01*
X56435714Y-20409597D02*
X56521429Y-20366740D01*
X56521429Y-20366740D02*
X56564286Y-20323882D01*
X56564286Y-20323882D02*
X56607143Y-20238168D01*
X56607143Y-20238168D02*
X56607143Y-20152454D01*
X56607143Y-20152454D02*
X56564286Y-20066740D01*
X56564286Y-20066740D02*
X56521429Y-20023882D01*
X56521429Y-20023882D02*
X56435714Y-19981025D01*
X56435714Y-19981025D02*
X56264286Y-19938168D01*
X56264286Y-19938168D02*
X56178571Y-19895311D01*
X56178571Y-19895311D02*
X56135714Y-19852454D01*
X56135714Y-19852454D02*
X56092857Y-19766740D01*
X56092857Y-19766740D02*
X56092857Y-19681025D01*
X56092857Y-19681025D02*
X56135714Y-19595311D01*
X56135714Y-19595311D02*
X56178571Y-19552454D01*
X56178571Y-19552454D02*
X56264286Y-19509597D01*
X56264286Y-19509597D02*
X56478571Y-19509597D01*
X56478571Y-19509597D02*
X56607143Y-19552454D01*
X57550000Y-19509597D02*
X58064286Y-19509597D01*
X57807143Y-20409597D02*
X57807143Y-19509597D01*
X58535714Y-19509597D02*
X58707142Y-19509597D01*
X58707142Y-19509597D02*
X58792857Y-19552454D01*
X58792857Y-19552454D02*
X58878571Y-19638168D01*
X58878571Y-19638168D02*
X58921428Y-19809597D01*
X58921428Y-19809597D02*
X58921428Y-20109597D01*
X58921428Y-20109597D02*
X58878571Y-20281025D01*
X58878571Y-20281025D02*
X58792857Y-20366740D01*
X58792857Y-20366740D02*
X58707142Y-20409597D01*
X58707142Y-20409597D02*
X58535714Y-20409597D01*
X58535714Y-20409597D02*
X58450000Y-20366740D01*
X58450000Y-20366740D02*
X58364285Y-20281025D01*
X58364285Y-20281025D02*
X58321428Y-20109597D01*
X58321428Y-20109597D02*
X58321428Y-19809597D01*
X58321428Y-19809597D02*
X58364285Y-19638168D01*
X58364285Y-19638168D02*
X58450000Y-19552454D01*
X58450000Y-19552454D02*
X58535714Y-19509597D01*
X59992856Y-20409597D02*
X59992856Y-19509597D01*
X59992856Y-19509597D02*
X60292856Y-20152454D01*
X60292856Y-20152454D02*
X60592856Y-19509597D01*
X60592856Y-19509597D02*
X60592856Y-20409597D01*
X61021427Y-19509597D02*
X61021427Y-20238168D01*
X61021427Y-20238168D02*
X61064284Y-20323882D01*
X61064284Y-20323882D02*
X61107142Y-20366740D01*
X61107142Y-20366740D02*
X61192856Y-20409597D01*
X61192856Y-20409597D02*
X61364284Y-20409597D01*
X61364284Y-20409597D02*
X61449999Y-20366740D01*
X61449999Y-20366740D02*
X61492856Y-20323882D01*
X61492856Y-20323882D02*
X61535713Y-20238168D01*
X61535713Y-20238168D02*
X61535713Y-19509597D01*
X61835713Y-19509597D02*
X62349999Y-19509597D01*
X62092856Y-20409597D02*
X62092856Y-19509597D01*
X62649998Y-19938168D02*
X62949998Y-19938168D01*
X63078570Y-20409597D02*
X62649998Y-20409597D01*
X62649998Y-20409597D02*
X62649998Y-19509597D01*
X62649998Y-19509597D02*
X63078570Y-19509597D01*
X76933333Y-46564287D02*
X77047619Y-46602382D01*
X77047619Y-46602382D02*
X77085714Y-46640478D01*
X77085714Y-46640478D02*
X77123810Y-46716668D01*
X77123810Y-46716668D02*
X77123810Y-46830954D01*
X77123810Y-46830954D02*
X77085714Y-46907144D01*
X77085714Y-46907144D02*
X77047619Y-46945240D01*
X77047619Y-46945240D02*
X76971429Y-46983335D01*
X76971429Y-46983335D02*
X76666667Y-46983335D01*
X76666667Y-46983335D02*
X76666667Y-46183335D01*
X76666667Y-46183335D02*
X76933333Y-46183335D01*
X76933333Y-46183335D02*
X77009524Y-46221430D01*
X77009524Y-46221430D02*
X77047619Y-46259525D01*
X77047619Y-46259525D02*
X77085714Y-46335716D01*
X77085714Y-46335716D02*
X77085714Y-46411906D01*
X77085714Y-46411906D02*
X77047619Y-46488097D01*
X77047619Y-46488097D02*
X77009524Y-46526192D01*
X77009524Y-46526192D02*
X76933333Y-46564287D01*
X76933333Y-46564287D02*
X76666667Y-46564287D01*
X77923810Y-46907144D02*
X77885714Y-46945240D01*
X77885714Y-46945240D02*
X77771429Y-46983335D01*
X77771429Y-46983335D02*
X77695238Y-46983335D01*
X77695238Y-46983335D02*
X77580952Y-46945240D01*
X77580952Y-46945240D02*
X77504762Y-46869049D01*
X77504762Y-46869049D02*
X77466667Y-46792859D01*
X77466667Y-46792859D02*
X77428571Y-46640478D01*
X77428571Y-46640478D02*
X77428571Y-46526192D01*
X77428571Y-46526192D02*
X77466667Y-46373811D01*
X77466667Y-46373811D02*
X77504762Y-46297620D01*
X77504762Y-46297620D02*
X77580952Y-46221430D01*
X77580952Y-46221430D02*
X77695238Y-46183335D01*
X77695238Y-46183335D02*
X77771429Y-46183335D01*
X77771429Y-46183335D02*
X77885714Y-46221430D01*
X77885714Y-46221430D02*
X77923810Y-46259525D01*
X78647619Y-46983335D02*
X78266667Y-46983335D01*
X78266667Y-46983335D02*
X78266667Y-46183335D01*
X78914286Y-46983335D02*
X78914286Y-46183335D01*
X79371429Y-46983335D02*
X79028571Y-46526192D01*
X79371429Y-46183335D02*
X78914286Y-46640478D01*
X19590476Y-10363335D02*
X19590476Y-11010954D01*
X19590476Y-11010954D02*
X19628571Y-11087144D01*
X19628571Y-11087144D02*
X19666666Y-11125240D01*
X19666666Y-11125240D02*
X19742857Y-11163335D01*
X19742857Y-11163335D02*
X19895238Y-11163335D01*
X19895238Y-11163335D02*
X19971428Y-11125240D01*
X19971428Y-11125240D02*
X20009523Y-11087144D01*
X20009523Y-11087144D02*
X20047619Y-11010954D01*
X20047619Y-11010954D02*
X20047619Y-10363335D01*
X20390475Y-11125240D02*
X20504761Y-11163335D01*
X20504761Y-11163335D02*
X20695237Y-11163335D01*
X20695237Y-11163335D02*
X20771428Y-11125240D01*
X20771428Y-11125240D02*
X20809523Y-11087144D01*
X20809523Y-11087144D02*
X20847618Y-11010954D01*
X20847618Y-11010954D02*
X20847618Y-10934763D01*
X20847618Y-10934763D02*
X20809523Y-10858573D01*
X20809523Y-10858573D02*
X20771428Y-10820478D01*
X20771428Y-10820478D02*
X20695237Y-10782382D01*
X20695237Y-10782382D02*
X20542856Y-10744287D01*
X20542856Y-10744287D02*
X20466666Y-10706192D01*
X20466666Y-10706192D02*
X20428571Y-10668097D01*
X20428571Y-10668097D02*
X20390475Y-10591906D01*
X20390475Y-10591906D02*
X20390475Y-10515716D01*
X20390475Y-10515716D02*
X20428571Y-10439525D01*
X20428571Y-10439525D02*
X20466666Y-10401430D01*
X20466666Y-10401430D02*
X20542856Y-10363335D01*
X20542856Y-10363335D02*
X20733333Y-10363335D01*
X20733333Y-10363335D02*
X20847618Y-10401430D01*
X21457142Y-10744287D02*
X21571428Y-10782382D01*
X21571428Y-10782382D02*
X21609523Y-10820478D01*
X21609523Y-10820478D02*
X21647619Y-10896668D01*
X21647619Y-10896668D02*
X21647619Y-11010954D01*
X21647619Y-11010954D02*
X21609523Y-11087144D01*
X21609523Y-11087144D02*
X21571428Y-11125240D01*
X21571428Y-11125240D02*
X21495238Y-11163335D01*
X21495238Y-11163335D02*
X21190476Y-11163335D01*
X21190476Y-11163335D02*
X21190476Y-10363335D01*
X21190476Y-10363335D02*
X21457142Y-10363335D01*
X21457142Y-10363335D02*
X21533333Y-10401430D01*
X21533333Y-10401430D02*
X21571428Y-10439525D01*
X21571428Y-10439525D02*
X21609523Y-10515716D01*
X21609523Y-10515716D02*
X21609523Y-10591906D01*
X21609523Y-10591906D02*
X21571428Y-10668097D01*
X21571428Y-10668097D02*
X21533333Y-10706192D01*
X21533333Y-10706192D02*
X21457142Y-10744287D01*
X21457142Y-10744287D02*
X21190476Y-10744287D01*
X77847619Y-38563335D02*
X77466667Y-38563335D01*
X77466667Y-38563335D02*
X77428571Y-38944287D01*
X77428571Y-38944287D02*
X77466667Y-38906192D01*
X77466667Y-38906192D02*
X77542857Y-38868097D01*
X77542857Y-38868097D02*
X77733333Y-38868097D01*
X77733333Y-38868097D02*
X77809524Y-38906192D01*
X77809524Y-38906192D02*
X77847619Y-38944287D01*
X77847619Y-38944287D02*
X77885714Y-39020478D01*
X77885714Y-39020478D02*
X77885714Y-39210954D01*
X77885714Y-39210954D02*
X77847619Y-39287144D01*
X77847619Y-39287144D02*
X77809524Y-39325240D01*
X77809524Y-39325240D02*
X77733333Y-39363335D01*
X77733333Y-39363335D02*
X77542857Y-39363335D01*
X77542857Y-39363335D02*
X77466667Y-39325240D01*
X77466667Y-39325240D02*
X77428571Y-39287144D01*
X78114286Y-38563335D02*
X78380953Y-39363335D01*
X78380953Y-39363335D02*
X78647619Y-38563335D01*
X55923810Y-55063335D02*
X56380953Y-55063335D01*
X56152381Y-55863335D02*
X56152381Y-55063335D01*
X56647620Y-55063335D02*
X56647620Y-55710954D01*
X56647620Y-55710954D02*
X56685715Y-55787144D01*
X56685715Y-55787144D02*
X56723810Y-55825240D01*
X56723810Y-55825240D02*
X56800001Y-55863335D01*
X56800001Y-55863335D02*
X56952382Y-55863335D01*
X56952382Y-55863335D02*
X57028572Y-55825240D01*
X57028572Y-55825240D02*
X57066667Y-55787144D01*
X57066667Y-55787144D02*
X57104763Y-55710954D01*
X57104763Y-55710954D02*
X57104763Y-55063335D01*
X57485715Y-55863335D02*
X57485715Y-55063335D01*
X57485715Y-55063335D02*
X57942858Y-55863335D01*
X57942858Y-55863335D02*
X57942858Y-55063335D01*
X58323810Y-55863335D02*
X58323810Y-55063335D01*
X58704762Y-55863335D02*
X58704762Y-55063335D01*
X58704762Y-55063335D02*
X59161905Y-55863335D01*
X59161905Y-55863335D02*
X59161905Y-55063335D01*
X59961904Y-55101430D02*
X59885714Y-55063335D01*
X59885714Y-55063335D02*
X59771428Y-55063335D01*
X59771428Y-55063335D02*
X59657142Y-55101430D01*
X59657142Y-55101430D02*
X59580952Y-55177620D01*
X59580952Y-55177620D02*
X59542857Y-55253811D01*
X59542857Y-55253811D02*
X59504761Y-55406192D01*
X59504761Y-55406192D02*
X59504761Y-55520478D01*
X59504761Y-55520478D02*
X59542857Y-55672859D01*
X59542857Y-55672859D02*
X59580952Y-55749049D01*
X59580952Y-55749049D02*
X59657142Y-55825240D01*
X59657142Y-55825240D02*
X59771428Y-55863335D01*
X59771428Y-55863335D02*
X59847619Y-55863335D01*
X59847619Y-55863335D02*
X59961904Y-55825240D01*
X59961904Y-55825240D02*
X60000000Y-55787144D01*
X60000000Y-55787144D02*
X60000000Y-55520478D01*
X60000000Y-55520478D02*
X59847619Y-55520478D01*
X77180953Y-49523335D02*
X77180953Y-48723335D01*
X77180953Y-48723335D02*
X77371429Y-48723335D01*
X77371429Y-48723335D02*
X77485715Y-48761430D01*
X77485715Y-48761430D02*
X77561905Y-48837620D01*
X77561905Y-48837620D02*
X77600000Y-48913811D01*
X77600000Y-48913811D02*
X77638096Y-49066192D01*
X77638096Y-49066192D02*
X77638096Y-49180478D01*
X77638096Y-49180478D02*
X77600000Y-49332859D01*
X77600000Y-49332859D02*
X77561905Y-49409049D01*
X77561905Y-49409049D02*
X77485715Y-49485240D01*
X77485715Y-49485240D02*
X77371429Y-49523335D01*
X77371429Y-49523335D02*
X77180953Y-49523335D01*
X77980953Y-49523335D02*
X77980953Y-48723335D01*
X78361905Y-49523335D02*
X78361905Y-48723335D01*
X78361905Y-48723335D02*
X78819048Y-49523335D01*
X78819048Y-49523335D02*
X78819048Y-48723335D01*
X77390476Y-41141430D02*
X77314286Y-41103335D01*
X77314286Y-41103335D02*
X77200000Y-41103335D01*
X77200000Y-41103335D02*
X77085714Y-41141430D01*
X77085714Y-41141430D02*
X77009524Y-41217620D01*
X77009524Y-41217620D02*
X76971429Y-41293811D01*
X76971429Y-41293811D02*
X76933333Y-41446192D01*
X76933333Y-41446192D02*
X76933333Y-41560478D01*
X76933333Y-41560478D02*
X76971429Y-41712859D01*
X76971429Y-41712859D02*
X77009524Y-41789049D01*
X77009524Y-41789049D02*
X77085714Y-41865240D01*
X77085714Y-41865240D02*
X77200000Y-41903335D01*
X77200000Y-41903335D02*
X77276191Y-41903335D01*
X77276191Y-41903335D02*
X77390476Y-41865240D01*
X77390476Y-41865240D02*
X77428572Y-41827144D01*
X77428572Y-41827144D02*
X77428572Y-41560478D01*
X77428572Y-41560478D02*
X77276191Y-41560478D01*
X77771429Y-41903335D02*
X77771429Y-41103335D01*
X77771429Y-41103335D02*
X78228572Y-41903335D01*
X78228572Y-41903335D02*
X78228572Y-41103335D01*
X78609524Y-41903335D02*
X78609524Y-41103335D01*
X78609524Y-41103335D02*
X78800000Y-41103335D01*
X78800000Y-41103335D02*
X78914286Y-41141430D01*
X78914286Y-41141430D02*
X78990476Y-41217620D01*
X78990476Y-41217620D02*
X79028571Y-41293811D01*
X79028571Y-41293811D02*
X79066667Y-41446192D01*
X79066667Y-41446192D02*
X79066667Y-41560478D01*
X79066667Y-41560478D02*
X79028571Y-41712859D01*
X79028571Y-41712859D02*
X78990476Y-41789049D01*
X78990476Y-41789049D02*
X78914286Y-41865240D01*
X78914286Y-41865240D02*
X78800000Y-41903335D01*
X78800000Y-41903335D02*
X78609524Y-41903335D01*
X77447619Y-44443335D02*
X77066667Y-44443335D01*
X77066667Y-44443335D02*
X77066667Y-43643335D01*
X78171429Y-44443335D02*
X77904762Y-44062382D01*
X77714286Y-44443335D02*
X77714286Y-43643335D01*
X77714286Y-43643335D02*
X78019048Y-43643335D01*
X78019048Y-43643335D02*
X78095238Y-43681430D01*
X78095238Y-43681430D02*
X78133333Y-43719525D01*
X78133333Y-43719525D02*
X78171429Y-43795716D01*
X78171429Y-43795716D02*
X78171429Y-43910001D01*
X78171429Y-43910001D02*
X78133333Y-43986192D01*
X78133333Y-43986192D02*
X78095238Y-44024287D01*
X78095238Y-44024287D02*
X78019048Y-44062382D01*
X78019048Y-44062382D02*
X77714286Y-44062382D01*
X78971429Y-44367144D02*
X78933333Y-44405240D01*
X78933333Y-44405240D02*
X78819048Y-44443335D01*
X78819048Y-44443335D02*
X78742857Y-44443335D01*
X78742857Y-44443335D02*
X78628571Y-44405240D01*
X78628571Y-44405240D02*
X78552381Y-44329049D01*
X78552381Y-44329049D02*
X78514286Y-44252859D01*
X78514286Y-44252859D02*
X78476190Y-44100478D01*
X78476190Y-44100478D02*
X78476190Y-43986192D01*
X78476190Y-43986192D02*
X78514286Y-43833811D01*
X78514286Y-43833811D02*
X78552381Y-43757620D01*
X78552381Y-43757620D02*
X78628571Y-43681430D01*
X78628571Y-43681430D02*
X78742857Y-43643335D01*
X78742857Y-43643335D02*
X78819048Y-43643335D01*
X78819048Y-43643335D02*
X78933333Y-43681430D01*
X78933333Y-43681430D02*
X78971429Y-43719525D01*
X67952381Y-25363335D02*
X67952381Y-24563335D01*
X67952381Y-24944287D02*
X68409524Y-24944287D01*
X68409524Y-25363335D02*
X68409524Y-24563335D01*
X68942857Y-24563335D02*
X69095238Y-24563335D01*
X69095238Y-24563335D02*
X69171428Y-24601430D01*
X69171428Y-24601430D02*
X69247619Y-24677620D01*
X69247619Y-24677620D02*
X69285714Y-24830001D01*
X69285714Y-24830001D02*
X69285714Y-25096668D01*
X69285714Y-25096668D02*
X69247619Y-25249049D01*
X69247619Y-25249049D02*
X69171428Y-25325240D01*
X69171428Y-25325240D02*
X69095238Y-25363335D01*
X69095238Y-25363335D02*
X68942857Y-25363335D01*
X68942857Y-25363335D02*
X68866666Y-25325240D01*
X68866666Y-25325240D02*
X68790476Y-25249049D01*
X68790476Y-25249049D02*
X68752380Y-25096668D01*
X68752380Y-25096668D02*
X68752380Y-24830001D01*
X68752380Y-24830001D02*
X68790476Y-24677620D01*
X68790476Y-24677620D02*
X68866666Y-24601430D01*
X68866666Y-24601430D02*
X68942857Y-24563335D01*
X70009523Y-25363335D02*
X69628571Y-25363335D01*
X69628571Y-25363335D02*
X69628571Y-24563335D01*
X70276190Y-25363335D02*
X70276190Y-24563335D01*
X70276190Y-24563335D02*
X70466666Y-24563335D01*
X70466666Y-24563335D02*
X70580952Y-24601430D01*
X70580952Y-24601430D02*
X70657142Y-24677620D01*
X70657142Y-24677620D02*
X70695237Y-24753811D01*
X70695237Y-24753811D02*
X70733333Y-24906192D01*
X70733333Y-24906192D02*
X70733333Y-25020478D01*
X70733333Y-25020478D02*
X70695237Y-25172859D01*
X70695237Y-25172859D02*
X70657142Y-25249049D01*
X70657142Y-25249049D02*
X70580952Y-25325240D01*
X70580952Y-25325240D02*
X70466666Y-25363335D01*
X70466666Y-25363335D02*
X70276190Y-25363335D01*
X71571428Y-24563335D02*
X72028571Y-24563335D01*
X71799999Y-25363335D02*
X71799999Y-24563335D01*
X72447619Y-24563335D02*
X72600000Y-24563335D01*
X72600000Y-24563335D02*
X72676190Y-24601430D01*
X72676190Y-24601430D02*
X72752381Y-24677620D01*
X72752381Y-24677620D02*
X72790476Y-24830001D01*
X72790476Y-24830001D02*
X72790476Y-25096668D01*
X72790476Y-25096668D02*
X72752381Y-25249049D01*
X72752381Y-25249049D02*
X72676190Y-25325240D01*
X72676190Y-25325240D02*
X72600000Y-25363335D01*
X72600000Y-25363335D02*
X72447619Y-25363335D01*
X72447619Y-25363335D02*
X72371428Y-25325240D01*
X72371428Y-25325240D02*
X72295238Y-25249049D01*
X72295238Y-25249049D02*
X72257142Y-25096668D01*
X72257142Y-25096668D02*
X72257142Y-24830001D01*
X72257142Y-24830001D02*
X72295238Y-24677620D01*
X72295238Y-24677620D02*
X72371428Y-24601430D01*
X72371428Y-24601430D02*
X72447619Y-24563335D01*
X73742857Y-25363335D02*
X73742857Y-24563335D01*
X73742857Y-24563335D02*
X73933333Y-24563335D01*
X73933333Y-24563335D02*
X74047619Y-24601430D01*
X74047619Y-24601430D02*
X74123809Y-24677620D01*
X74123809Y-24677620D02*
X74161904Y-24753811D01*
X74161904Y-24753811D02*
X74200000Y-24906192D01*
X74200000Y-24906192D02*
X74200000Y-25020478D01*
X74200000Y-25020478D02*
X74161904Y-25172859D01*
X74161904Y-25172859D02*
X74123809Y-25249049D01*
X74123809Y-25249049D02*
X74047619Y-25325240D01*
X74047619Y-25325240D02*
X73933333Y-25363335D01*
X73933333Y-25363335D02*
X73742857Y-25363335D01*
X74542857Y-24944287D02*
X74809523Y-24944287D01*
X74923809Y-25363335D02*
X74542857Y-25363335D01*
X74542857Y-25363335D02*
X74542857Y-24563335D01*
X74542857Y-24563335D02*
X74923809Y-24563335D01*
X75723810Y-25287144D02*
X75685714Y-25325240D01*
X75685714Y-25325240D02*
X75571429Y-25363335D01*
X75571429Y-25363335D02*
X75495238Y-25363335D01*
X75495238Y-25363335D02*
X75380952Y-25325240D01*
X75380952Y-25325240D02*
X75304762Y-25249049D01*
X75304762Y-25249049D02*
X75266667Y-25172859D01*
X75266667Y-25172859D02*
X75228571Y-25020478D01*
X75228571Y-25020478D02*
X75228571Y-24906192D01*
X75228571Y-24906192D02*
X75266667Y-24753811D01*
X75266667Y-24753811D02*
X75304762Y-24677620D01*
X75304762Y-24677620D02*
X75380952Y-24601430D01*
X75380952Y-24601430D02*
X75495238Y-24563335D01*
X75495238Y-24563335D02*
X75571429Y-24563335D01*
X75571429Y-24563335D02*
X75685714Y-24601430D01*
X75685714Y-24601430D02*
X75723810Y-24639525D01*
X76219048Y-24563335D02*
X76371429Y-24563335D01*
X76371429Y-24563335D02*
X76447619Y-24601430D01*
X76447619Y-24601430D02*
X76523810Y-24677620D01*
X76523810Y-24677620D02*
X76561905Y-24830001D01*
X76561905Y-24830001D02*
X76561905Y-25096668D01*
X76561905Y-25096668D02*
X76523810Y-25249049D01*
X76523810Y-25249049D02*
X76447619Y-25325240D01*
X76447619Y-25325240D02*
X76371429Y-25363335D01*
X76371429Y-25363335D02*
X76219048Y-25363335D01*
X76219048Y-25363335D02*
X76142857Y-25325240D01*
X76142857Y-25325240D02*
X76066667Y-25249049D01*
X76066667Y-25249049D02*
X76028571Y-25096668D01*
X76028571Y-25096668D02*
X76028571Y-24830001D01*
X76028571Y-24830001D02*
X76066667Y-24677620D01*
X76066667Y-24677620D02*
X76142857Y-24601430D01*
X76142857Y-24601430D02*
X76219048Y-24563335D01*
X76904762Y-25363335D02*
X76904762Y-24563335D01*
X76904762Y-24563335D02*
X77095238Y-24563335D01*
X77095238Y-24563335D02*
X77209524Y-24601430D01*
X77209524Y-24601430D02*
X77285714Y-24677620D01*
X77285714Y-24677620D02*
X77323809Y-24753811D01*
X77323809Y-24753811D02*
X77361905Y-24906192D01*
X77361905Y-24906192D02*
X77361905Y-25020478D01*
X77361905Y-25020478D02*
X77323809Y-25172859D01*
X77323809Y-25172859D02*
X77285714Y-25249049D01*
X77285714Y-25249049D02*
X77209524Y-25325240D01*
X77209524Y-25325240D02*
X77095238Y-25363335D01*
X77095238Y-25363335D02*
X76904762Y-25363335D01*
X77704762Y-24944287D02*
X77971428Y-24944287D01*
X78085714Y-25363335D02*
X77704762Y-25363335D01*
X77704762Y-25363335D02*
X77704762Y-24563335D01*
X77704762Y-24563335D02*
X78085714Y-24563335D01*
X32999999Y-34906192D02*
X32923809Y-34868097D01*
X32923809Y-34868097D02*
X32885714Y-34830001D01*
X32885714Y-34830001D02*
X32847618Y-34753811D01*
X32847618Y-34753811D02*
X32847618Y-34715716D01*
X32847618Y-34715716D02*
X32885714Y-34639525D01*
X32885714Y-34639525D02*
X32923809Y-34601430D01*
X32923809Y-34601430D02*
X32999999Y-34563335D01*
X32999999Y-34563335D02*
X33152380Y-34563335D01*
X33152380Y-34563335D02*
X33228571Y-34601430D01*
X33228571Y-34601430D02*
X33266666Y-34639525D01*
X33266666Y-34639525D02*
X33304761Y-34715716D01*
X33304761Y-34715716D02*
X33304761Y-34753811D01*
X33304761Y-34753811D02*
X33266666Y-34830001D01*
X33266666Y-34830001D02*
X33228571Y-34868097D01*
X33228571Y-34868097D02*
X33152380Y-34906192D01*
X33152380Y-34906192D02*
X32999999Y-34906192D01*
X32999999Y-34906192D02*
X32923809Y-34944287D01*
X32923809Y-34944287D02*
X32885714Y-34982382D01*
X32885714Y-34982382D02*
X32847618Y-35058573D01*
X32847618Y-35058573D02*
X32847618Y-35210954D01*
X32847618Y-35210954D02*
X32885714Y-35287144D01*
X32885714Y-35287144D02*
X32923809Y-35325240D01*
X32923809Y-35325240D02*
X32999999Y-35363335D01*
X32999999Y-35363335D02*
X33152380Y-35363335D01*
X33152380Y-35363335D02*
X33228571Y-35325240D01*
X33228571Y-35325240D02*
X33266666Y-35287144D01*
X33266666Y-35287144D02*
X33304761Y-35210954D01*
X33304761Y-35210954D02*
X33304761Y-35058573D01*
X33304761Y-35058573D02*
X33266666Y-34982382D01*
X33266666Y-34982382D02*
X33228571Y-34944287D01*
X33228571Y-34944287D02*
X33152380Y-34906192D01*
X34409524Y-34563335D02*
X34561905Y-34563335D01*
X34561905Y-34563335D02*
X34638095Y-34601430D01*
X34638095Y-34601430D02*
X34714286Y-34677620D01*
X34714286Y-34677620D02*
X34752381Y-34830001D01*
X34752381Y-34830001D02*
X34752381Y-35096668D01*
X34752381Y-35096668D02*
X34714286Y-35249049D01*
X34714286Y-35249049D02*
X34638095Y-35325240D01*
X34638095Y-35325240D02*
X34561905Y-35363335D01*
X34561905Y-35363335D02*
X34409524Y-35363335D01*
X34409524Y-35363335D02*
X34333333Y-35325240D01*
X34333333Y-35325240D02*
X34257143Y-35249049D01*
X34257143Y-35249049D02*
X34219047Y-35096668D01*
X34219047Y-35096668D02*
X34219047Y-34830001D01*
X34219047Y-34830001D02*
X34257143Y-34677620D01*
X34257143Y-34677620D02*
X34333333Y-34601430D01*
X34333333Y-34601430D02*
X34409524Y-34563335D01*
X35095238Y-35363335D02*
X35095238Y-34563335D01*
X35095238Y-34944287D02*
X35552381Y-34944287D01*
X35552381Y-35363335D02*
X35552381Y-34563335D01*
X35933333Y-35363335D02*
X35933333Y-34563335D01*
X35933333Y-34563335D02*
X36199999Y-35134763D01*
X36199999Y-35134763D02*
X36466666Y-34563335D01*
X36466666Y-34563335D02*
X36466666Y-35363335D01*
X37419047Y-35325240D02*
X37533333Y-35363335D01*
X37533333Y-35363335D02*
X37723809Y-35363335D01*
X37723809Y-35363335D02*
X37800000Y-35325240D01*
X37800000Y-35325240D02*
X37838095Y-35287144D01*
X37838095Y-35287144D02*
X37876190Y-35210954D01*
X37876190Y-35210954D02*
X37876190Y-35134763D01*
X37876190Y-35134763D02*
X37838095Y-35058573D01*
X37838095Y-35058573D02*
X37800000Y-35020478D01*
X37800000Y-35020478D02*
X37723809Y-34982382D01*
X37723809Y-34982382D02*
X37571428Y-34944287D01*
X37571428Y-34944287D02*
X37495238Y-34906192D01*
X37495238Y-34906192D02*
X37457143Y-34868097D01*
X37457143Y-34868097D02*
X37419047Y-34791906D01*
X37419047Y-34791906D02*
X37419047Y-34715716D01*
X37419047Y-34715716D02*
X37457143Y-34639525D01*
X37457143Y-34639525D02*
X37495238Y-34601430D01*
X37495238Y-34601430D02*
X37571428Y-34563335D01*
X37571428Y-34563335D02*
X37761905Y-34563335D01*
X37761905Y-34563335D02*
X37876190Y-34601430D01*
X38219048Y-35363335D02*
X38219048Y-34563335D01*
X38219048Y-34563335D02*
X38523810Y-34563335D01*
X38523810Y-34563335D02*
X38600000Y-34601430D01*
X38600000Y-34601430D02*
X38638095Y-34639525D01*
X38638095Y-34639525D02*
X38676191Y-34715716D01*
X38676191Y-34715716D02*
X38676191Y-34830001D01*
X38676191Y-34830001D02*
X38638095Y-34906192D01*
X38638095Y-34906192D02*
X38600000Y-34944287D01*
X38600000Y-34944287D02*
X38523810Y-34982382D01*
X38523810Y-34982382D02*
X38219048Y-34982382D01*
X39019048Y-34944287D02*
X39285714Y-34944287D01*
X39400000Y-35363335D02*
X39019048Y-35363335D01*
X39019048Y-35363335D02*
X39019048Y-34563335D01*
X39019048Y-34563335D02*
X39400000Y-34563335D01*
X39704762Y-35134763D02*
X40085715Y-35134763D01*
X39628572Y-35363335D02*
X39895239Y-34563335D01*
X39895239Y-34563335D02*
X40161905Y-35363335D01*
X40428572Y-35363335D02*
X40428572Y-34563335D01*
X40885715Y-35363335D02*
X40542857Y-34906192D01*
X40885715Y-34563335D02*
X40428572Y-35020478D01*
X41228572Y-34944287D02*
X41495238Y-34944287D01*
X41609524Y-35363335D02*
X41228572Y-35363335D01*
X41228572Y-35363335D02*
X41228572Y-34563335D01*
X41228572Y-34563335D02*
X41609524Y-34563335D01*
X42409525Y-35363335D02*
X42142858Y-34982382D01*
X41952382Y-35363335D02*
X41952382Y-34563335D01*
X41952382Y-34563335D02*
X42257144Y-34563335D01*
X42257144Y-34563335D02*
X42333334Y-34601430D01*
X42333334Y-34601430D02*
X42371429Y-34639525D01*
X42371429Y-34639525D02*
X42409525Y-34715716D01*
X42409525Y-34715716D02*
X42409525Y-34830001D01*
X42409525Y-34830001D02*
X42371429Y-34906192D01*
X42371429Y-34906192D02*
X42333334Y-34944287D01*
X42333334Y-34944287D02*
X42257144Y-34982382D01*
X42257144Y-34982382D02*
X41952382Y-34982382D01*
X43361906Y-35058573D02*
X43971430Y-35058573D01*
X44352382Y-34830001D02*
X44961906Y-35058573D01*
X44961906Y-35058573D02*
X44352382Y-35287144D01*
X45914286Y-35134763D02*
X46295239Y-35134763D01*
X45838096Y-35363335D02*
X46104763Y-34563335D01*
X46104763Y-34563335D02*
X46371429Y-35363335D01*
X46638096Y-35363335D02*
X46638096Y-34563335D01*
X46638096Y-34563335D02*
X46904762Y-35134763D01*
X46904762Y-35134763D02*
X47171429Y-34563335D01*
X47171429Y-34563335D02*
X47171429Y-35363335D01*
X47552382Y-35363335D02*
X47552382Y-34563335D01*
X47552382Y-34563335D02*
X47857144Y-34563335D01*
X47857144Y-34563335D02*
X47933334Y-34601430D01*
X47933334Y-34601430D02*
X47971429Y-34639525D01*
X47971429Y-34639525D02*
X48009525Y-34715716D01*
X48009525Y-34715716D02*
X48009525Y-34830001D01*
X48009525Y-34830001D02*
X47971429Y-34906192D01*
X47971429Y-34906192D02*
X47933334Y-34944287D01*
X47933334Y-34944287D02*
X47857144Y-34982382D01*
X47857144Y-34982382D02*
X47552382Y-34982382D01*
X49114287Y-34563335D02*
X49266668Y-34563335D01*
X49266668Y-34563335D02*
X49342858Y-34601430D01*
X49342858Y-34601430D02*
X49419049Y-34677620D01*
X49419049Y-34677620D02*
X49457144Y-34830001D01*
X49457144Y-34830001D02*
X49457144Y-35096668D01*
X49457144Y-35096668D02*
X49419049Y-35249049D01*
X49419049Y-35249049D02*
X49342858Y-35325240D01*
X49342858Y-35325240D02*
X49266668Y-35363335D01*
X49266668Y-35363335D02*
X49114287Y-35363335D01*
X49114287Y-35363335D02*
X49038096Y-35325240D01*
X49038096Y-35325240D02*
X48961906Y-35249049D01*
X48961906Y-35249049D02*
X48923810Y-35096668D01*
X48923810Y-35096668D02*
X48923810Y-34830001D01*
X48923810Y-34830001D02*
X48961906Y-34677620D01*
X48961906Y-34677620D02*
X49038096Y-34601430D01*
X49038096Y-34601430D02*
X49114287Y-34563335D01*
X49800001Y-34563335D02*
X49800001Y-35210954D01*
X49800001Y-35210954D02*
X49838096Y-35287144D01*
X49838096Y-35287144D02*
X49876191Y-35325240D01*
X49876191Y-35325240D02*
X49952382Y-35363335D01*
X49952382Y-35363335D02*
X50104763Y-35363335D01*
X50104763Y-35363335D02*
X50180953Y-35325240D01*
X50180953Y-35325240D02*
X50219048Y-35287144D01*
X50219048Y-35287144D02*
X50257144Y-35210954D01*
X50257144Y-35210954D02*
X50257144Y-34563335D01*
X50523810Y-34563335D02*
X50980953Y-34563335D01*
X50752381Y-35363335D02*
X50752381Y-34563335D01*
X51247620Y-35363335D02*
X51247620Y-34563335D01*
X51247620Y-34563335D02*
X51552382Y-34563335D01*
X51552382Y-34563335D02*
X51628572Y-34601430D01*
X51628572Y-34601430D02*
X51666667Y-34639525D01*
X51666667Y-34639525D02*
X51704763Y-34715716D01*
X51704763Y-34715716D02*
X51704763Y-34830001D01*
X51704763Y-34830001D02*
X51666667Y-34906192D01*
X51666667Y-34906192D02*
X51628572Y-34944287D01*
X51628572Y-34944287D02*
X51552382Y-34982382D01*
X51552382Y-34982382D02*
X51247620Y-34982382D01*
X52047620Y-34563335D02*
X52047620Y-35210954D01*
X52047620Y-35210954D02*
X52085715Y-35287144D01*
X52085715Y-35287144D02*
X52123810Y-35325240D01*
X52123810Y-35325240D02*
X52200001Y-35363335D01*
X52200001Y-35363335D02*
X52352382Y-35363335D01*
X52352382Y-35363335D02*
X52428572Y-35325240D01*
X52428572Y-35325240D02*
X52466667Y-35287144D01*
X52466667Y-35287144D02*
X52504763Y-35210954D01*
X52504763Y-35210954D02*
X52504763Y-34563335D01*
X52771429Y-34563335D02*
X53228572Y-34563335D01*
X53000000Y-35363335D02*
X53000000Y-34563335D01*
X12828571Y-40563335D02*
X12980952Y-40563335D01*
X12980952Y-40563335D02*
X13057142Y-40601430D01*
X13057142Y-40601430D02*
X13133333Y-40677620D01*
X13133333Y-40677620D02*
X13171428Y-40830001D01*
X13171428Y-40830001D02*
X13171428Y-41096668D01*
X13171428Y-41096668D02*
X13133333Y-41249049D01*
X13133333Y-41249049D02*
X13057142Y-41325240D01*
X13057142Y-41325240D02*
X12980952Y-41363335D01*
X12980952Y-41363335D02*
X12828571Y-41363335D01*
X12828571Y-41363335D02*
X12752380Y-41325240D01*
X12752380Y-41325240D02*
X12676190Y-41249049D01*
X12676190Y-41249049D02*
X12638094Y-41096668D01*
X12638094Y-41096668D02*
X12638094Y-40830001D01*
X12638094Y-40830001D02*
X12676190Y-40677620D01*
X12676190Y-40677620D02*
X12752380Y-40601430D01*
X12752380Y-40601430D02*
X12828571Y-40563335D01*
X13895237Y-41363335D02*
X13514285Y-41363335D01*
X13514285Y-41363335D02*
X13514285Y-40563335D01*
X14161904Y-40944287D02*
X14428570Y-40944287D01*
X14542856Y-41363335D02*
X14161904Y-41363335D01*
X14161904Y-41363335D02*
X14161904Y-40563335D01*
X14161904Y-40563335D02*
X14542856Y-40563335D01*
X14885714Y-41363335D02*
X14885714Y-40563335D01*
X14885714Y-40563335D02*
X15076190Y-40563335D01*
X15076190Y-40563335D02*
X15190476Y-40601430D01*
X15190476Y-40601430D02*
X15266666Y-40677620D01*
X15266666Y-40677620D02*
X15304761Y-40753811D01*
X15304761Y-40753811D02*
X15342857Y-40906192D01*
X15342857Y-40906192D02*
X15342857Y-41020478D01*
X15342857Y-41020478D02*
X15304761Y-41172859D01*
X15304761Y-41172859D02*
X15266666Y-41249049D01*
X15266666Y-41249049D02*
X15190476Y-41325240D01*
X15190476Y-41325240D02*
X15076190Y-41363335D01*
X15076190Y-41363335D02*
X14885714Y-41363335D01*
X16295238Y-41058573D02*
X16904762Y-41058573D01*
X17285714Y-40830001D02*
X17895238Y-41058573D01*
X17895238Y-41058573D02*
X17285714Y-41287144D01*
X19419047Y-41439525D02*
X19342857Y-41401430D01*
X19342857Y-41401430D02*
X19266666Y-41325240D01*
X19266666Y-41325240D02*
X19152380Y-41210954D01*
X19152380Y-41210954D02*
X19076190Y-41172859D01*
X19076190Y-41172859D02*
X18999999Y-41172859D01*
X19038095Y-41363335D02*
X18961904Y-41325240D01*
X18961904Y-41325240D02*
X18885714Y-41249049D01*
X18885714Y-41249049D02*
X18847618Y-41096668D01*
X18847618Y-41096668D02*
X18847618Y-40830001D01*
X18847618Y-40830001D02*
X18885714Y-40677620D01*
X18885714Y-40677620D02*
X18961904Y-40601430D01*
X18961904Y-40601430D02*
X19038095Y-40563335D01*
X19038095Y-40563335D02*
X19190476Y-40563335D01*
X19190476Y-40563335D02*
X19266666Y-40601430D01*
X19266666Y-40601430D02*
X19342857Y-40677620D01*
X19342857Y-40677620D02*
X19380952Y-40830001D01*
X19380952Y-40830001D02*
X19380952Y-41096668D01*
X19380952Y-41096668D02*
X19342857Y-41249049D01*
X19342857Y-41249049D02*
X19266666Y-41325240D01*
X19266666Y-41325240D02*
X19190476Y-41363335D01*
X19190476Y-41363335D02*
X19038095Y-41363335D01*
X19609523Y-40563335D02*
X20066666Y-40563335D01*
X19838094Y-41363335D02*
X19838094Y-40563335D01*
X20942857Y-41363335D02*
X20942857Y-40563335D01*
X20942857Y-40563335D02*
X21247619Y-40563335D01*
X21247619Y-40563335D02*
X21323809Y-40601430D01*
X21323809Y-40601430D02*
X21361904Y-40639525D01*
X21361904Y-40639525D02*
X21400000Y-40715716D01*
X21400000Y-40715716D02*
X21400000Y-40830001D01*
X21400000Y-40830001D02*
X21361904Y-40906192D01*
X21361904Y-40906192D02*
X21323809Y-40944287D01*
X21323809Y-40944287D02*
X21247619Y-40982382D01*
X21247619Y-40982382D02*
X20942857Y-40982382D01*
X21895238Y-40982382D02*
X21895238Y-41363335D01*
X21628571Y-40563335D02*
X21895238Y-40982382D01*
X21895238Y-40982382D02*
X22161904Y-40563335D01*
X22999999Y-41325240D02*
X23114285Y-41363335D01*
X23114285Y-41363335D02*
X23304761Y-41363335D01*
X23304761Y-41363335D02*
X23380952Y-41325240D01*
X23380952Y-41325240D02*
X23419047Y-41287144D01*
X23419047Y-41287144D02*
X23457142Y-41210954D01*
X23457142Y-41210954D02*
X23457142Y-41134763D01*
X23457142Y-41134763D02*
X23419047Y-41058573D01*
X23419047Y-41058573D02*
X23380952Y-41020478D01*
X23380952Y-41020478D02*
X23304761Y-40982382D01*
X23304761Y-40982382D02*
X23152380Y-40944287D01*
X23152380Y-40944287D02*
X23076190Y-40906192D01*
X23076190Y-40906192D02*
X23038095Y-40868097D01*
X23038095Y-40868097D02*
X22999999Y-40791906D01*
X22999999Y-40791906D02*
X22999999Y-40715716D01*
X22999999Y-40715716D02*
X23038095Y-40639525D01*
X23038095Y-40639525D02*
X23076190Y-40601430D01*
X23076190Y-40601430D02*
X23152380Y-40563335D01*
X23152380Y-40563335D02*
X23342857Y-40563335D01*
X23342857Y-40563335D02*
X23457142Y-40601430D01*
X23685714Y-40563335D02*
X24142857Y-40563335D01*
X23914285Y-41363335D02*
X23914285Y-40563335D01*
X24409524Y-40944287D02*
X24676190Y-40944287D01*
X24790476Y-41363335D02*
X24409524Y-41363335D01*
X24409524Y-41363335D02*
X24409524Y-40563335D01*
X24409524Y-40563335D02*
X24790476Y-40563335D01*
X25133334Y-41363335D02*
X25133334Y-40563335D01*
X25133334Y-40563335D02*
X25400000Y-41134763D01*
X25400000Y-41134763D02*
X25666667Y-40563335D01*
X25666667Y-40563335D02*
X25666667Y-41363335D01*
X26047620Y-41363335D02*
X26047620Y-40563335D01*
X26047620Y-40563335D02*
X26314286Y-41134763D01*
X26314286Y-41134763D02*
X26580953Y-40563335D01*
X26580953Y-40563335D02*
X26580953Y-41363335D01*
X26923810Y-41134763D02*
X27304763Y-41134763D01*
X26847620Y-41363335D02*
X27114287Y-40563335D01*
X27114287Y-40563335D02*
X27380953Y-41363335D01*
X28790477Y-41439525D02*
X28714287Y-41401430D01*
X28714287Y-41401430D02*
X28638096Y-41325240D01*
X28638096Y-41325240D02*
X28523810Y-41210954D01*
X28523810Y-41210954D02*
X28447620Y-41172859D01*
X28447620Y-41172859D02*
X28371429Y-41172859D01*
X28409525Y-41363335D02*
X28333334Y-41325240D01*
X28333334Y-41325240D02*
X28257144Y-41249049D01*
X28257144Y-41249049D02*
X28219048Y-41096668D01*
X28219048Y-41096668D02*
X28219048Y-40830001D01*
X28219048Y-40830001D02*
X28257144Y-40677620D01*
X28257144Y-40677620D02*
X28333334Y-40601430D01*
X28333334Y-40601430D02*
X28409525Y-40563335D01*
X28409525Y-40563335D02*
X28561906Y-40563335D01*
X28561906Y-40563335D02*
X28638096Y-40601430D01*
X28638096Y-40601430D02*
X28714287Y-40677620D01*
X28714287Y-40677620D02*
X28752382Y-40830001D01*
X28752382Y-40830001D02*
X28752382Y-41096668D01*
X28752382Y-41096668D02*
X28714287Y-41249049D01*
X28714287Y-41249049D02*
X28638096Y-41325240D01*
X28638096Y-41325240D02*
X28561906Y-41363335D01*
X28561906Y-41363335D02*
X28409525Y-41363335D01*
X28980953Y-40563335D02*
X29438096Y-40563335D01*
X29209524Y-41363335D02*
X29209524Y-40563335D01*
D13*
X17269048Y-58693125D02*
X17511905Y-58774077D01*
X17511905Y-58774077D02*
X17916667Y-58774077D01*
X17916667Y-58774077D02*
X18078572Y-58693125D01*
X18078572Y-58693125D02*
X18159524Y-58612172D01*
X18159524Y-58612172D02*
X18240477Y-58450267D01*
X18240477Y-58450267D02*
X18240477Y-58288363D01*
X18240477Y-58288363D02*
X18159524Y-58126458D01*
X18159524Y-58126458D02*
X18078572Y-58045505D01*
X18078572Y-58045505D02*
X17916667Y-57964553D01*
X17916667Y-57964553D02*
X17592858Y-57883601D01*
X17592858Y-57883601D02*
X17430953Y-57802648D01*
X17430953Y-57802648D02*
X17350000Y-57721696D01*
X17350000Y-57721696D02*
X17269048Y-57559791D01*
X17269048Y-57559791D02*
X17269048Y-57397886D01*
X17269048Y-57397886D02*
X17350000Y-57235982D01*
X17350000Y-57235982D02*
X17430953Y-57155029D01*
X17430953Y-57155029D02*
X17592858Y-57074077D01*
X17592858Y-57074077D02*
X17997619Y-57074077D01*
X17997619Y-57074077D02*
X18240477Y-57155029D01*
X18969048Y-58774077D02*
X18969048Y-57074077D01*
X20669049Y-57155029D02*
X20507144Y-57074077D01*
X20507144Y-57074077D02*
X20264287Y-57074077D01*
X20264287Y-57074077D02*
X20021430Y-57155029D01*
X20021430Y-57155029D02*
X19859525Y-57316934D01*
X19859525Y-57316934D02*
X19778572Y-57478839D01*
X19778572Y-57478839D02*
X19697620Y-57802648D01*
X19697620Y-57802648D02*
X19697620Y-58045505D01*
X19697620Y-58045505D02*
X19778572Y-58369315D01*
X19778572Y-58369315D02*
X19859525Y-58531220D01*
X19859525Y-58531220D02*
X20021430Y-58693125D01*
X20021430Y-58693125D02*
X20264287Y-58774077D01*
X20264287Y-58774077D02*
X20426191Y-58774077D01*
X20426191Y-58774077D02*
X20669049Y-58693125D01*
X20669049Y-58693125D02*
X20750001Y-58612172D01*
X20750001Y-58612172D02*
X20750001Y-58045505D01*
X20750001Y-58045505D02*
X20426191Y-58045505D01*
X21478572Y-58774077D02*
X21478572Y-57074077D01*
X21478572Y-57074077D02*
X22450001Y-58774077D01*
X22450001Y-58774077D02*
X22450001Y-57074077D01*
X23178572Y-58288363D02*
X23988096Y-58288363D01*
X23016667Y-58774077D02*
X23583334Y-57074077D01*
X23583334Y-57074077D02*
X24150001Y-58774077D01*
X25526191Y-58774077D02*
X24716667Y-58774077D01*
X24716667Y-58774077D02*
X24716667Y-57074077D01*
X28197619Y-58774077D02*
X27388095Y-58774077D01*
X27388095Y-58774077D02*
X27388095Y-57074077D01*
X29088095Y-57074077D02*
X29411904Y-57074077D01*
X29411904Y-57074077D02*
X29573809Y-57155029D01*
X29573809Y-57155029D02*
X29735714Y-57316934D01*
X29735714Y-57316934D02*
X29816666Y-57640744D01*
X29816666Y-57640744D02*
X29816666Y-58207410D01*
X29816666Y-58207410D02*
X29735714Y-58531220D01*
X29735714Y-58531220D02*
X29573809Y-58693125D01*
X29573809Y-58693125D02*
X29411904Y-58774077D01*
X29411904Y-58774077D02*
X29088095Y-58774077D01*
X29088095Y-58774077D02*
X28926190Y-58693125D01*
X28926190Y-58693125D02*
X28764285Y-58531220D01*
X28764285Y-58531220D02*
X28683333Y-58207410D01*
X28683333Y-58207410D02*
X28683333Y-57640744D01*
X28683333Y-57640744D02*
X28764285Y-57316934D01*
X28764285Y-57316934D02*
X28926190Y-57155029D01*
X28926190Y-57155029D02*
X29088095Y-57074077D01*
X30464285Y-58693125D02*
X30707142Y-58774077D01*
X30707142Y-58774077D02*
X31111904Y-58774077D01*
X31111904Y-58774077D02*
X31273809Y-58693125D01*
X31273809Y-58693125D02*
X31354761Y-58612172D01*
X31354761Y-58612172D02*
X31435714Y-58450267D01*
X31435714Y-58450267D02*
X31435714Y-58288363D01*
X31435714Y-58288363D02*
X31354761Y-58126458D01*
X31354761Y-58126458D02*
X31273809Y-58045505D01*
X31273809Y-58045505D02*
X31111904Y-57964553D01*
X31111904Y-57964553D02*
X30788095Y-57883601D01*
X30788095Y-57883601D02*
X30626190Y-57802648D01*
X30626190Y-57802648D02*
X30545237Y-57721696D01*
X30545237Y-57721696D02*
X30464285Y-57559791D01*
X30464285Y-57559791D02*
X30464285Y-57397886D01*
X30464285Y-57397886D02*
X30545237Y-57235982D01*
X30545237Y-57235982D02*
X30626190Y-57155029D01*
X30626190Y-57155029D02*
X30788095Y-57074077D01*
X30788095Y-57074077D02*
X31192856Y-57074077D01*
X31192856Y-57074077D02*
X31435714Y-57155029D01*
X31921428Y-57074077D02*
X32892857Y-57074077D01*
X32407143Y-58774077D02*
X32407143Y-57074077D01*
D12*
X18076190Y-62363335D02*
X17809523Y-61982382D01*
X17619047Y-62363335D02*
X17619047Y-61563335D01*
X17619047Y-61563335D02*
X17923809Y-61563335D01*
X17923809Y-61563335D02*
X17999999Y-61601430D01*
X17999999Y-61601430D02*
X18038094Y-61639525D01*
X18038094Y-61639525D02*
X18076190Y-61715716D01*
X18076190Y-61715716D02*
X18076190Y-61830001D01*
X18076190Y-61830001D02*
X18038094Y-61906192D01*
X18038094Y-61906192D02*
X17999999Y-61944287D01*
X17999999Y-61944287D02*
X17923809Y-61982382D01*
X17923809Y-61982382D02*
X17619047Y-61982382D01*
X18419047Y-61944287D02*
X18685713Y-61944287D01*
X18799999Y-62363335D02*
X18419047Y-62363335D01*
X18419047Y-62363335D02*
X18419047Y-61563335D01*
X18419047Y-61563335D02*
X18799999Y-61563335D01*
X19600000Y-62287144D02*
X19561904Y-62325240D01*
X19561904Y-62325240D02*
X19447619Y-62363335D01*
X19447619Y-62363335D02*
X19371428Y-62363335D01*
X19371428Y-62363335D02*
X19257142Y-62325240D01*
X19257142Y-62325240D02*
X19180952Y-62249049D01*
X19180952Y-62249049D02*
X19142857Y-62172859D01*
X19142857Y-62172859D02*
X19104761Y-62020478D01*
X19104761Y-62020478D02*
X19104761Y-61906192D01*
X19104761Y-61906192D02*
X19142857Y-61753811D01*
X19142857Y-61753811D02*
X19180952Y-61677620D01*
X19180952Y-61677620D02*
X19257142Y-61601430D01*
X19257142Y-61601430D02*
X19371428Y-61563335D01*
X19371428Y-61563335D02*
X19447619Y-61563335D01*
X19447619Y-61563335D02*
X19561904Y-61601430D01*
X19561904Y-61601430D02*
X19600000Y-61639525D01*
X20095238Y-61563335D02*
X20247619Y-61563335D01*
X20247619Y-61563335D02*
X20323809Y-61601430D01*
X20323809Y-61601430D02*
X20400000Y-61677620D01*
X20400000Y-61677620D02*
X20438095Y-61830001D01*
X20438095Y-61830001D02*
X20438095Y-62096668D01*
X20438095Y-62096668D02*
X20400000Y-62249049D01*
X20400000Y-62249049D02*
X20323809Y-62325240D01*
X20323809Y-62325240D02*
X20247619Y-62363335D01*
X20247619Y-62363335D02*
X20095238Y-62363335D01*
X20095238Y-62363335D02*
X20019047Y-62325240D01*
X20019047Y-62325240D02*
X19942857Y-62249049D01*
X19942857Y-62249049D02*
X19904761Y-62096668D01*
X19904761Y-62096668D02*
X19904761Y-61830001D01*
X19904761Y-61830001D02*
X19942857Y-61677620D01*
X19942857Y-61677620D02*
X20019047Y-61601430D01*
X20019047Y-61601430D02*
X20095238Y-61563335D01*
X20666666Y-61563335D02*
X20933333Y-62363335D01*
X20933333Y-62363335D02*
X21199999Y-61563335D01*
X21466666Y-61944287D02*
X21733332Y-61944287D01*
X21847618Y-62363335D02*
X21466666Y-62363335D01*
X21466666Y-62363335D02*
X21466666Y-61563335D01*
X21466666Y-61563335D02*
X21847618Y-61563335D01*
X22647619Y-62363335D02*
X22380952Y-61982382D01*
X22190476Y-62363335D02*
X22190476Y-61563335D01*
X22190476Y-61563335D02*
X22495238Y-61563335D01*
X22495238Y-61563335D02*
X22571428Y-61601430D01*
X22571428Y-61601430D02*
X22609523Y-61639525D01*
X22609523Y-61639525D02*
X22647619Y-61715716D01*
X22647619Y-61715716D02*
X22647619Y-61830001D01*
X22647619Y-61830001D02*
X22609523Y-61906192D01*
X22609523Y-61906192D02*
X22571428Y-61944287D01*
X22571428Y-61944287D02*
X22495238Y-61982382D01*
X22495238Y-61982382D02*
X22190476Y-61982382D01*
X22990476Y-61944287D02*
X23257142Y-61944287D01*
X23371428Y-62363335D02*
X22990476Y-62363335D01*
X22990476Y-62363335D02*
X22990476Y-61563335D01*
X22990476Y-61563335D02*
X23371428Y-61563335D01*
X23714286Y-62363335D02*
X23714286Y-61563335D01*
X23714286Y-61563335D02*
X23904762Y-61563335D01*
X23904762Y-61563335D02*
X24019048Y-61601430D01*
X24019048Y-61601430D02*
X24095238Y-61677620D01*
X24095238Y-61677620D02*
X24133333Y-61753811D01*
X24133333Y-61753811D02*
X24171429Y-61906192D01*
X24171429Y-61906192D02*
X24171429Y-62020478D01*
X24171429Y-62020478D02*
X24133333Y-62172859D01*
X24133333Y-62172859D02*
X24095238Y-62249049D01*
X24095238Y-62249049D02*
X24019048Y-62325240D01*
X24019048Y-62325240D02*
X23904762Y-62363335D01*
X23904762Y-62363335D02*
X23714286Y-62363335D01*
X25009524Y-61563335D02*
X25466667Y-61563335D01*
X25238095Y-62363335D02*
X25238095Y-61563335D01*
X26190477Y-62363335D02*
X25923810Y-61982382D01*
X25733334Y-62363335D02*
X25733334Y-61563335D01*
X25733334Y-61563335D02*
X26038096Y-61563335D01*
X26038096Y-61563335D02*
X26114286Y-61601430D01*
X26114286Y-61601430D02*
X26152381Y-61639525D01*
X26152381Y-61639525D02*
X26190477Y-61715716D01*
X26190477Y-61715716D02*
X26190477Y-61830001D01*
X26190477Y-61830001D02*
X26152381Y-61906192D01*
X26152381Y-61906192D02*
X26114286Y-61944287D01*
X26114286Y-61944287D02*
X26038096Y-61982382D01*
X26038096Y-61982382D02*
X25733334Y-61982382D01*
X26495238Y-62134763D02*
X26876191Y-62134763D01*
X26419048Y-62363335D02*
X26685715Y-61563335D01*
X26685715Y-61563335D02*
X26952381Y-62363335D01*
X27219048Y-62363335D02*
X27219048Y-61563335D01*
X27219048Y-61563335D02*
X27676191Y-62363335D01*
X27676191Y-62363335D02*
X27676191Y-61563335D01*
X28019047Y-62325240D02*
X28133333Y-62363335D01*
X28133333Y-62363335D02*
X28323809Y-62363335D01*
X28323809Y-62363335D02*
X28400000Y-62325240D01*
X28400000Y-62325240D02*
X28438095Y-62287144D01*
X28438095Y-62287144D02*
X28476190Y-62210954D01*
X28476190Y-62210954D02*
X28476190Y-62134763D01*
X28476190Y-62134763D02*
X28438095Y-62058573D01*
X28438095Y-62058573D02*
X28400000Y-62020478D01*
X28400000Y-62020478D02*
X28323809Y-61982382D01*
X28323809Y-61982382D02*
X28171428Y-61944287D01*
X28171428Y-61944287D02*
X28095238Y-61906192D01*
X28095238Y-61906192D02*
X28057143Y-61868097D01*
X28057143Y-61868097D02*
X28019047Y-61791906D01*
X28019047Y-61791906D02*
X28019047Y-61715716D01*
X28019047Y-61715716D02*
X28057143Y-61639525D01*
X28057143Y-61639525D02*
X28095238Y-61601430D01*
X28095238Y-61601430D02*
X28171428Y-61563335D01*
X28171428Y-61563335D02*
X28361905Y-61563335D01*
X28361905Y-61563335D02*
X28476190Y-61601430D01*
X28819048Y-62363335D02*
X28819048Y-61563335D01*
X28819048Y-61563335D02*
X29085714Y-62134763D01*
X29085714Y-62134763D02*
X29352381Y-61563335D01*
X29352381Y-61563335D02*
X29352381Y-62363335D01*
X29733334Y-62363335D02*
X29733334Y-61563335D01*
X30076190Y-62325240D02*
X30190476Y-62363335D01*
X30190476Y-62363335D02*
X30380952Y-62363335D01*
X30380952Y-62363335D02*
X30457143Y-62325240D01*
X30457143Y-62325240D02*
X30495238Y-62287144D01*
X30495238Y-62287144D02*
X30533333Y-62210954D01*
X30533333Y-62210954D02*
X30533333Y-62134763D01*
X30533333Y-62134763D02*
X30495238Y-62058573D01*
X30495238Y-62058573D02*
X30457143Y-62020478D01*
X30457143Y-62020478D02*
X30380952Y-61982382D01*
X30380952Y-61982382D02*
X30228571Y-61944287D01*
X30228571Y-61944287D02*
X30152381Y-61906192D01*
X30152381Y-61906192D02*
X30114286Y-61868097D01*
X30114286Y-61868097D02*
X30076190Y-61791906D01*
X30076190Y-61791906D02*
X30076190Y-61715716D01*
X30076190Y-61715716D02*
X30114286Y-61639525D01*
X30114286Y-61639525D02*
X30152381Y-61601430D01*
X30152381Y-61601430D02*
X30228571Y-61563335D01*
X30228571Y-61563335D02*
X30419048Y-61563335D01*
X30419048Y-61563335D02*
X30533333Y-61601430D01*
X30838095Y-62325240D02*
X30952381Y-62363335D01*
X30952381Y-62363335D02*
X31142857Y-62363335D01*
X31142857Y-62363335D02*
X31219048Y-62325240D01*
X31219048Y-62325240D02*
X31257143Y-62287144D01*
X31257143Y-62287144D02*
X31295238Y-62210954D01*
X31295238Y-62210954D02*
X31295238Y-62134763D01*
X31295238Y-62134763D02*
X31257143Y-62058573D01*
X31257143Y-62058573D02*
X31219048Y-62020478D01*
X31219048Y-62020478D02*
X31142857Y-61982382D01*
X31142857Y-61982382D02*
X30990476Y-61944287D01*
X30990476Y-61944287D02*
X30914286Y-61906192D01*
X30914286Y-61906192D02*
X30876191Y-61868097D01*
X30876191Y-61868097D02*
X30838095Y-61791906D01*
X30838095Y-61791906D02*
X30838095Y-61715716D01*
X30838095Y-61715716D02*
X30876191Y-61639525D01*
X30876191Y-61639525D02*
X30914286Y-61601430D01*
X30914286Y-61601430D02*
X30990476Y-61563335D01*
X30990476Y-61563335D02*
X31180953Y-61563335D01*
X31180953Y-61563335D02*
X31295238Y-61601430D01*
X31638096Y-62363335D02*
X31638096Y-61563335D01*
X32171429Y-61563335D02*
X32323810Y-61563335D01*
X32323810Y-61563335D02*
X32400000Y-61601430D01*
X32400000Y-61601430D02*
X32476191Y-61677620D01*
X32476191Y-61677620D02*
X32514286Y-61830001D01*
X32514286Y-61830001D02*
X32514286Y-62096668D01*
X32514286Y-62096668D02*
X32476191Y-62249049D01*
X32476191Y-62249049D02*
X32400000Y-62325240D01*
X32400000Y-62325240D02*
X32323810Y-62363335D01*
X32323810Y-62363335D02*
X32171429Y-62363335D01*
X32171429Y-62363335D02*
X32095238Y-62325240D01*
X32095238Y-62325240D02*
X32019048Y-62249049D01*
X32019048Y-62249049D02*
X31980952Y-62096668D01*
X31980952Y-62096668D02*
X31980952Y-61830001D01*
X31980952Y-61830001D02*
X32019048Y-61677620D01*
X32019048Y-61677620D02*
X32095238Y-61601430D01*
X32095238Y-61601430D02*
X32171429Y-61563335D01*
X32857143Y-62363335D02*
X32857143Y-61563335D01*
X32857143Y-61563335D02*
X33314286Y-62363335D01*
X33314286Y-62363335D02*
X33314286Y-61563335D01*
X34304762Y-62363335D02*
X34304762Y-61563335D01*
X34304762Y-61563335D02*
X34495238Y-61563335D01*
X34495238Y-61563335D02*
X34609524Y-61601430D01*
X34609524Y-61601430D02*
X34685714Y-61677620D01*
X34685714Y-61677620D02*
X34723809Y-61753811D01*
X34723809Y-61753811D02*
X34761905Y-61906192D01*
X34761905Y-61906192D02*
X34761905Y-62020478D01*
X34761905Y-62020478D02*
X34723809Y-62172859D01*
X34723809Y-62172859D02*
X34685714Y-62249049D01*
X34685714Y-62249049D02*
X34609524Y-62325240D01*
X34609524Y-62325240D02*
X34495238Y-62363335D01*
X34495238Y-62363335D02*
X34304762Y-62363335D01*
X35104762Y-61944287D02*
X35371428Y-61944287D01*
X35485714Y-62363335D02*
X35104762Y-62363335D01*
X35104762Y-62363335D02*
X35104762Y-61563335D01*
X35104762Y-61563335D02*
X35485714Y-61563335D01*
X35714286Y-61563335D02*
X35980953Y-62363335D01*
X35980953Y-62363335D02*
X36247619Y-61563335D01*
X36514286Y-62363335D02*
X36514286Y-61563335D01*
X37352381Y-62287144D02*
X37314285Y-62325240D01*
X37314285Y-62325240D02*
X37200000Y-62363335D01*
X37200000Y-62363335D02*
X37123809Y-62363335D01*
X37123809Y-62363335D02*
X37009523Y-62325240D01*
X37009523Y-62325240D02*
X36933333Y-62249049D01*
X36933333Y-62249049D02*
X36895238Y-62172859D01*
X36895238Y-62172859D02*
X36857142Y-62020478D01*
X36857142Y-62020478D02*
X36857142Y-61906192D01*
X36857142Y-61906192D02*
X36895238Y-61753811D01*
X36895238Y-61753811D02*
X36933333Y-61677620D01*
X36933333Y-61677620D02*
X37009523Y-61601430D01*
X37009523Y-61601430D02*
X37123809Y-61563335D01*
X37123809Y-61563335D02*
X37200000Y-61563335D01*
X37200000Y-61563335D02*
X37314285Y-61601430D01*
X37314285Y-61601430D02*
X37352381Y-61639525D01*
X37695238Y-61944287D02*
X37961904Y-61944287D01*
X38076190Y-62363335D02*
X37695238Y-62363335D01*
X37695238Y-62363335D02*
X37695238Y-61563335D01*
X37695238Y-61563335D02*
X38076190Y-61563335D01*
X39600000Y-61525240D02*
X38914286Y-62553811D01*
X40628572Y-61563335D02*
X40704762Y-61563335D01*
X40704762Y-61563335D02*
X40780953Y-61601430D01*
X40780953Y-61601430D02*
X40819048Y-61639525D01*
X40819048Y-61639525D02*
X40857143Y-61715716D01*
X40857143Y-61715716D02*
X40895238Y-61868097D01*
X40895238Y-61868097D02*
X40895238Y-62058573D01*
X40895238Y-62058573D02*
X40857143Y-62210954D01*
X40857143Y-62210954D02*
X40819048Y-62287144D01*
X40819048Y-62287144D02*
X40780953Y-62325240D01*
X40780953Y-62325240D02*
X40704762Y-62363335D01*
X40704762Y-62363335D02*
X40628572Y-62363335D01*
X40628572Y-62363335D02*
X40552381Y-62325240D01*
X40552381Y-62325240D02*
X40514286Y-62287144D01*
X40514286Y-62287144D02*
X40476191Y-62210954D01*
X40476191Y-62210954D02*
X40438095Y-62058573D01*
X40438095Y-62058573D02*
X40438095Y-61868097D01*
X40438095Y-61868097D02*
X40476191Y-61715716D01*
X40476191Y-61715716D02*
X40514286Y-61639525D01*
X40514286Y-61639525D02*
X40552381Y-61601430D01*
X40552381Y-61601430D02*
X40628572Y-61563335D01*
X41390477Y-61563335D02*
X41466667Y-61563335D01*
X41466667Y-61563335D02*
X41542858Y-61601430D01*
X41542858Y-61601430D02*
X41580953Y-61639525D01*
X41580953Y-61639525D02*
X41619048Y-61715716D01*
X41619048Y-61715716D02*
X41657143Y-61868097D01*
X41657143Y-61868097D02*
X41657143Y-62058573D01*
X41657143Y-62058573D02*
X41619048Y-62210954D01*
X41619048Y-62210954D02*
X41580953Y-62287144D01*
X41580953Y-62287144D02*
X41542858Y-62325240D01*
X41542858Y-62325240D02*
X41466667Y-62363335D01*
X41466667Y-62363335D02*
X41390477Y-62363335D01*
X41390477Y-62363335D02*
X41314286Y-62325240D01*
X41314286Y-62325240D02*
X41276191Y-62287144D01*
X41276191Y-62287144D02*
X41238096Y-62210954D01*
X41238096Y-62210954D02*
X41200000Y-62058573D01*
X41200000Y-62058573D02*
X41200000Y-61868097D01*
X41200000Y-61868097D02*
X41238096Y-61715716D01*
X41238096Y-61715716D02*
X41276191Y-61639525D01*
X41276191Y-61639525D02*
X41314286Y-61601430D01*
X41314286Y-61601430D02*
X41390477Y-61563335D01*
X42419048Y-62363335D02*
X41961905Y-62363335D01*
X42190477Y-62363335D02*
X42190477Y-61563335D01*
X42190477Y-61563335D02*
X42114286Y-61677620D01*
X42114286Y-61677620D02*
X42038096Y-61753811D01*
X42038096Y-61753811D02*
X41961905Y-61791906D01*
D14*
%TO.C,D1*%
X42140000Y-50040000D02*
X42140000Y-51960000D01*
X42140000Y-51960000D02*
X45000000Y-51960000D01*
X45000000Y-50040000D02*
X42140000Y-50040000D01*
%TO.C,J1*%
X68620000Y-37620000D02*
X70000000Y-37620000D01*
X68620000Y-39000000D02*
X68620000Y-37620000D01*
X68620000Y-40270000D02*
X68620000Y-50540000D01*
X68620000Y-40270000D02*
X71380000Y-40270000D01*
X68620000Y-50540000D02*
X71380000Y-50540000D01*
X71380000Y-40270000D02*
X71380000Y-50540000D01*
%TO.C,R2*%
X57772936Y-45265000D02*
X58227064Y-45265000D01*
X57772936Y-46735000D02*
X58227064Y-46735000D01*
%TO.C,R1*%
X43772936Y-45265000D02*
X44227064Y-45265000D01*
X43772936Y-46735000D02*
X44227064Y-46735000D01*
%TO.C,D2*%
X56140000Y-50040000D02*
X56140000Y-51960000D01*
X56140000Y-51960000D02*
X59000000Y-51960000D01*
X59000000Y-50040000D02*
X56140000Y-50040000D01*
%TD*%
D15*
%TO.C,TP1*%
X73000000Y-17000000D03*
%TD*%
M02*
