%TF.GenerationSoftware,KiCad,Pcbnew,9.0.4*%
%TF.CreationDate,2026-10-05T15:23:22-04:00*%
%TF.ProjectId,signal-lost,7369676e-616c-42d6-9c6f-73742e6b6963,rev?*%
%TF.SameCoordinates,Original*%
%TF.FileFunction,Copper,L2,Bot*%
%TF.FilePolarity,Positive*%
%FSLAX46Y46*%
G04 Gerber Fmt 4.6, Leading zero omitted, Abs format (unit mm)*
G04 Created by KiCad (PCBNEW 9.0.4) date 2026-10-05 15:23:22*
%MOMM*%
%LPD*%
G01*
G04 APERTURE LIST*
%TA.AperFunction,ComponentPad*%
%ADD10C,1.800000*%
%TD*%
%TA.AperFunction,ComponentPad*%
%ADD11C,2.800000*%
%TD*%
%TA.AperFunction,ComponentPad*%
%ADD12R,1.700000X1.700000*%
%TD*%
%TA.AperFunction,ComponentPad*%
%ADD13C,1.700000*%
%TD*%
%TA.AperFunction,ViaPad*%
%ADD14C,0.600000*%
%TD*%
%TA.AperFunction,Conductor*%
%ADD15C,0.400000*%
%TD*%
%TA.AperFunction,Conductor*%
%ADD16C,0.200000*%
%TD*%
%TA.AperFunction,Conductor*%
%ADD17C,0.150000*%
%TD*%
G04 APERTURE END LIST*
D10*
%TO.P,SW1,A*%
%TO.N,ENC_A*%
X47000000Y-25000000D03*
%TO.P,SW1,B*%
%TO.N,ENC_B*%
X47000000Y-30080000D03*
%TO.P,SW1,C*%
%TO.N,GND*%
X47000000Y-27540000D03*
D11*
%TO.P,SW1,MP1*%
X54620000Y-21190000D03*
%TO.P,SW1,MP2*%
X54620000Y-33890000D03*
D10*
%TO.P,SW1,S1*%
%TO.N,ENC_SW*%
X62240000Y-30080000D03*
%TO.P,SW1,S2*%
%TO.N,GND*%
X62240000Y-25000000D03*
%TD*%
D12*
%TO.P,J1,1*%
%TO.N,+5V*%
X70000000Y-39000000D03*
D13*
%TO.P,J1,2*%
%TO.N,GND*%
X70000000Y-41540000D03*
%TO.P,J1,3*%
%TO.N,I2S_LRC*%
X70000000Y-44080000D03*
%TO.P,J1,4*%
%TO.N,I2S_BCLK*%
X70000000Y-46620000D03*
%TO.P,J1,5*%
%TO.N,I2S_DIN*%
X70000000Y-49160000D03*
%TD*%
%TO.P,U1,1*%
%TO.N,ENC_A*%
X13000000Y-16000000D03*
%TO.P,U1,2*%
%TO.N,ENC_B*%
X13000000Y-18540000D03*
%TO.P,U1,3*%
%TO.N,TOUCH*%
X13000000Y-21080000D03*
%TO.P,U1,4*%
%TO.N,ENC_SW*%
X13000000Y-23620000D03*
%TO.P,U1,5*%
%TO.N,N/C*%
X13000000Y-26160000D03*
%TO.P,U1,6*%
X13000000Y-28700000D03*
%TO.P,U1,7*%
%TO.N,I2S_LRC*%
X13000000Y-31240000D03*
%TO.P,U1,8*%
%TO.N,I2S_BCLK*%
X28240000Y-31240000D03*
%TO.P,U1,9*%
%TO.N,I2S_DIN*%
X28240000Y-28700000D03*
%TO.P,U1,10*%
%TO.N,LED_TUNE*%
X28240000Y-26159999D03*
%TO.P,U1,11*%
%TO.N,LED_SIGNAL*%
X28240000Y-23619999D03*
%TO.P,U1,12*%
%TO.N,N/C*%
X28240000Y-21080000D03*
%TO.P,U1,13*%
%TO.N,GND*%
X28240000Y-18540000D03*
%TO.P,U1,14*%
%TO.N,+5V*%
X28240000Y-15999999D03*
%TD*%
D14*
%TO.N,GND*%
X56045100Y-51929900D03*
%TO.N,TOUCH*%
X17233700Y-19729900D03*
%TO.N,LED_SIGNAL*%
X42063600Y-45063600D03*
%TO.N,LED_TUNE*%
X47143600Y-45063600D03*
%TD*%
D15*
%TO.N,GND*%
X56045100Y-41540000D02*
X70000000Y-41540000D01*
X47000000Y-27540000D02*
X53350000Y-33890000D01*
X54620000Y-40114900D02*
X56045100Y-41540000D01*
X38000000Y-18540000D02*
X47000000Y-27540000D01*
X56045100Y-41540000D02*
X56045100Y-51929900D01*
X54620000Y-33890000D02*
X54620000Y-40114900D01*
X28240000Y-18540000D02*
X38000000Y-18540000D01*
X53350000Y-33890000D02*
X54620000Y-33890000D01*
%TO.N,+5V*%
X70000000Y-39000000D02*
X68873300Y-39000000D01*
X56320200Y-31280200D02*
X61153500Y-31280200D01*
X28240000Y-16000000D02*
X41040000Y-16000000D01*
X41040000Y-16000000D02*
X56320200Y-31280200D01*
X61153500Y-31280200D02*
X68873300Y-39000000D01*
D16*
%TO.N,ENC_B*%
X21464000Y-22250300D02*
X17753700Y-18540000D01*
X17753700Y-18540000D02*
X13000000Y-18540000D01*
X47000000Y-30080000D02*
X39170300Y-22250300D01*
X39170300Y-22250300D02*
X21464000Y-22250300D01*
%TO.N,TOUCH*%
X14350100Y-19729900D02*
X17233700Y-19729900D01*
X13000000Y-21080000D02*
X14350100Y-19729900D01*
D17*
%TO.N,LED_SIGNAL*%
X28276600Y-27393100D02*
X28789900Y-27393100D01*
D16*
X27072400Y-24787600D02*
X27072400Y-26693400D01*
X27072400Y-26693400D02*
X27772100Y-27393100D01*
X29190000Y-27793200D02*
X42063600Y-40666800D01*
D17*
X28789900Y-27393100D02*
X29190000Y-27793200D01*
D16*
X42063600Y-40666800D02*
X42063600Y-45063600D01*
X28240000Y-23620000D02*
X27072400Y-24787600D01*
X27772100Y-27393100D02*
X28276600Y-27393100D01*
%TO.N,LED_TUNE*%
X47143600Y-45063600D02*
X28240000Y-26160000D01*
%TD*%
M02*
