%TF.GenerationSoftware,KiCad,Pcbnew,9.0.4*%
%TF.CreationDate,2026-10-05T15:23:22-04:00*%
%TF.ProjectId,signal-lost,7369676e-616c-42d6-9c6f-73742e6b6963,rev?*%
%TF.SameCoordinates,Original*%
%TF.FileFunction,Legend,Bot*%
%TF.FilePolarity,Positive*%
%FSLAX46Y46*%
G04 Gerber Fmt 4.6, Leading zero omitted, Abs format (unit mm)*
G04 Created by KiCad (PCBNEW 9.0.4) date 2026-10-05 15:23:22*
%MOMM*%
%LPD*%
G01*
G04 APERTURE LIST*
%ADD10C,0.150000*%
%ADD11C,0.130000*%
G04 APERTURE END LIST*
D10*
X55220238Y-55535427D02*
X54734524Y-55535427D01*
X54977381Y-56385427D02*
X54977381Y-55535427D01*
X54451191Y-56385427D02*
X54451191Y-55535427D01*
X54451191Y-55940189D02*
X53965476Y-55940189D01*
X53965476Y-56385427D02*
X53965476Y-55535427D01*
X53560715Y-55940189D02*
X53277381Y-55940189D01*
X53155953Y-56385427D02*
X53560715Y-56385427D01*
X53560715Y-56385427D02*
X53560715Y-55535427D01*
X53560715Y-55535427D02*
X53155953Y-55535427D01*
X51739286Y-56385427D02*
X52144048Y-56385427D01*
X52144048Y-56385427D02*
X52144048Y-55535427D01*
X51294048Y-55535427D02*
X51132143Y-55535427D01*
X51132143Y-55535427D02*
X51051191Y-55575903D01*
X51051191Y-55575903D02*
X50970238Y-55656855D01*
X50970238Y-55656855D02*
X50929762Y-55818760D01*
X50929762Y-55818760D02*
X50929762Y-56102093D01*
X50929762Y-56102093D02*
X50970238Y-56263998D01*
X50970238Y-56263998D02*
X51051191Y-56344951D01*
X51051191Y-56344951D02*
X51132143Y-56385427D01*
X51132143Y-56385427D02*
X51294048Y-56385427D01*
X51294048Y-56385427D02*
X51375000Y-56344951D01*
X51375000Y-56344951D02*
X51455953Y-56263998D01*
X51455953Y-56263998D02*
X51496429Y-56102093D01*
X51496429Y-56102093D02*
X51496429Y-55818760D01*
X51496429Y-55818760D02*
X51455953Y-55656855D01*
X51455953Y-55656855D02*
X51375000Y-55575903D01*
X51375000Y-55575903D02*
X51294048Y-55535427D01*
X50605953Y-56344951D02*
X50484524Y-56385427D01*
X50484524Y-56385427D02*
X50282143Y-56385427D01*
X50282143Y-56385427D02*
X50201191Y-56344951D01*
X50201191Y-56344951D02*
X50160715Y-56304474D01*
X50160715Y-56304474D02*
X50120238Y-56223522D01*
X50120238Y-56223522D02*
X50120238Y-56142570D01*
X50120238Y-56142570D02*
X50160715Y-56061617D01*
X50160715Y-56061617D02*
X50201191Y-56021141D01*
X50201191Y-56021141D02*
X50282143Y-55980665D01*
X50282143Y-55980665D02*
X50444048Y-55940189D01*
X50444048Y-55940189D02*
X50525000Y-55899712D01*
X50525000Y-55899712D02*
X50565477Y-55859236D01*
X50565477Y-55859236D02*
X50605953Y-55778284D01*
X50605953Y-55778284D02*
X50605953Y-55697331D01*
X50605953Y-55697331D02*
X50565477Y-55616379D01*
X50565477Y-55616379D02*
X50525000Y-55575903D01*
X50525000Y-55575903D02*
X50444048Y-55535427D01*
X50444048Y-55535427D02*
X50241667Y-55535427D01*
X50241667Y-55535427D02*
X50120238Y-55575903D01*
X49877381Y-55535427D02*
X49391667Y-55535427D01*
X49634524Y-56385427D02*
X49634524Y-55535427D01*
X47975000Y-56304474D02*
X48015476Y-56344951D01*
X48015476Y-56344951D02*
X48136905Y-56385427D01*
X48136905Y-56385427D02*
X48217857Y-56385427D01*
X48217857Y-56385427D02*
X48339286Y-56344951D01*
X48339286Y-56344951D02*
X48420238Y-56263998D01*
X48420238Y-56263998D02*
X48460715Y-56183046D01*
X48460715Y-56183046D02*
X48501191Y-56021141D01*
X48501191Y-56021141D02*
X48501191Y-55899712D01*
X48501191Y-55899712D02*
X48460715Y-55737808D01*
X48460715Y-55737808D02*
X48420238Y-55656855D01*
X48420238Y-55656855D02*
X48339286Y-55575903D01*
X48339286Y-55575903D02*
X48217857Y-55535427D01*
X48217857Y-55535427D02*
X48136905Y-55535427D01*
X48136905Y-55535427D02*
X48015476Y-55575903D01*
X48015476Y-55575903D02*
X47975000Y-55616379D01*
X47610715Y-56385427D02*
X47610715Y-55535427D01*
X47610715Y-55940189D02*
X47125000Y-55940189D01*
X47125000Y-56385427D02*
X47125000Y-55535427D01*
X46760715Y-56142570D02*
X46355953Y-56142570D01*
X46841667Y-56385427D02*
X46558334Y-55535427D01*
X46558334Y-55535427D02*
X46275000Y-56385427D01*
X45991668Y-56385427D02*
X45991668Y-55535427D01*
X45991668Y-55535427D02*
X45505953Y-56385427D01*
X45505953Y-56385427D02*
X45505953Y-55535427D01*
X45101192Y-56385427D02*
X45101192Y-55535427D01*
X45101192Y-55535427D02*
X44615477Y-56385427D01*
X44615477Y-56385427D02*
X44615477Y-55535427D01*
X44210716Y-55940189D02*
X43927382Y-55940189D01*
X43805954Y-56385427D02*
X44210716Y-56385427D01*
X44210716Y-56385427D02*
X44210716Y-55535427D01*
X44210716Y-55535427D02*
X43805954Y-55535427D01*
X43036906Y-56385427D02*
X43441668Y-56385427D01*
X43441668Y-56385427D02*
X43441668Y-55535427D01*
X41620239Y-56385427D02*
X41903573Y-55980665D01*
X42105954Y-56385427D02*
X42105954Y-55535427D01*
X42105954Y-55535427D02*
X41782144Y-55535427D01*
X41782144Y-55535427D02*
X41701192Y-55575903D01*
X41701192Y-55575903D02*
X41660715Y-55616379D01*
X41660715Y-55616379D02*
X41620239Y-55697331D01*
X41620239Y-55697331D02*
X41620239Y-55818760D01*
X41620239Y-55818760D02*
X41660715Y-55899712D01*
X41660715Y-55899712D02*
X41701192Y-55940189D01*
X41701192Y-55940189D02*
X41782144Y-55980665D01*
X41782144Y-55980665D02*
X42105954Y-55980665D01*
X41255954Y-55940189D02*
X40972620Y-55940189D01*
X40851192Y-56385427D02*
X41255954Y-56385427D01*
X41255954Y-56385427D02*
X41255954Y-55535427D01*
X41255954Y-55535427D02*
X40851192Y-55535427D01*
X40486906Y-56385427D02*
X40486906Y-55535427D01*
X40486906Y-55535427D02*
X40203572Y-56142570D01*
X40203572Y-56142570D02*
X39920239Y-55535427D01*
X39920239Y-55535427D02*
X39920239Y-56385427D01*
X39515477Y-55940189D02*
X39232143Y-55940189D01*
X39110715Y-56385427D02*
X39515477Y-56385427D01*
X39515477Y-56385427D02*
X39515477Y-55535427D01*
X39515477Y-55535427D02*
X39110715Y-55535427D01*
X38746429Y-56385427D02*
X38746429Y-55535427D01*
X38746429Y-55535427D02*
X38463095Y-56142570D01*
X38463095Y-56142570D02*
X38179762Y-55535427D01*
X38179762Y-55535427D02*
X38179762Y-56385427D01*
X37491666Y-55940189D02*
X37370238Y-55980665D01*
X37370238Y-55980665D02*
X37329761Y-56021141D01*
X37329761Y-56021141D02*
X37289285Y-56102093D01*
X37289285Y-56102093D02*
X37289285Y-56223522D01*
X37289285Y-56223522D02*
X37329761Y-56304474D01*
X37329761Y-56304474D02*
X37370238Y-56344951D01*
X37370238Y-56344951D02*
X37451190Y-56385427D01*
X37451190Y-56385427D02*
X37775000Y-56385427D01*
X37775000Y-56385427D02*
X37775000Y-55535427D01*
X37775000Y-55535427D02*
X37491666Y-55535427D01*
X37491666Y-55535427D02*
X37410714Y-55575903D01*
X37410714Y-55575903D02*
X37370238Y-55616379D01*
X37370238Y-55616379D02*
X37329761Y-55697331D01*
X37329761Y-55697331D02*
X37329761Y-55778284D01*
X37329761Y-55778284D02*
X37370238Y-55859236D01*
X37370238Y-55859236D02*
X37410714Y-55899712D01*
X37410714Y-55899712D02*
X37491666Y-55940189D01*
X37491666Y-55940189D02*
X37775000Y-55940189D01*
X36925000Y-55940189D02*
X36641666Y-55940189D01*
X36520238Y-56385427D02*
X36925000Y-56385427D01*
X36925000Y-56385427D02*
X36925000Y-55535427D01*
X36925000Y-55535427D02*
X36520238Y-55535427D01*
X35670237Y-56385427D02*
X35953571Y-55980665D01*
X36155952Y-56385427D02*
X36155952Y-55535427D01*
X36155952Y-55535427D02*
X35832142Y-55535427D01*
X35832142Y-55535427D02*
X35751190Y-55575903D01*
X35751190Y-55575903D02*
X35710713Y-55616379D01*
X35710713Y-55616379D02*
X35670237Y-55697331D01*
X35670237Y-55697331D02*
X35670237Y-55818760D01*
X35670237Y-55818760D02*
X35710713Y-55899712D01*
X35710713Y-55899712D02*
X35751190Y-55940189D01*
X35751190Y-55940189D02*
X35832142Y-55980665D01*
X35832142Y-55980665D02*
X36155952Y-55980665D01*
X35346428Y-56344951D02*
X35224999Y-56385427D01*
X35224999Y-56385427D02*
X35022618Y-56385427D01*
X35022618Y-56385427D02*
X34941666Y-56344951D01*
X34941666Y-56344951D02*
X34901190Y-56304474D01*
X34901190Y-56304474D02*
X34860713Y-56223522D01*
X34860713Y-56223522D02*
X34860713Y-56142570D01*
X34860713Y-56142570D02*
X34901190Y-56061617D01*
X34901190Y-56061617D02*
X34941666Y-56021141D01*
X34941666Y-56021141D02*
X35022618Y-55980665D01*
X35022618Y-55980665D02*
X35184523Y-55940189D01*
X35184523Y-55940189D02*
X35265475Y-55899712D01*
X35265475Y-55899712D02*
X35305952Y-55859236D01*
X35305952Y-55859236D02*
X35346428Y-55778284D01*
X35346428Y-55778284D02*
X35346428Y-55697331D01*
X35346428Y-55697331D02*
X35305952Y-55616379D01*
X35305952Y-55616379D02*
X35265475Y-55575903D01*
X35265475Y-55575903D02*
X35184523Y-55535427D01*
X35184523Y-55535427D02*
X34982142Y-55535427D01*
X34982142Y-55535427D02*
X34860713Y-55575903D01*
X52885712Y-50508557D02*
X52799998Y-50508557D01*
X52799998Y-50508557D02*
X52714284Y-50551414D01*
X52714284Y-50551414D02*
X52671427Y-50594271D01*
X52671427Y-50594271D02*
X52628569Y-50679985D01*
X52628569Y-50679985D02*
X52585712Y-50851414D01*
X52585712Y-50851414D02*
X52585712Y-51065700D01*
X52585712Y-51065700D02*
X52628569Y-51237128D01*
X52628569Y-51237128D02*
X52671427Y-51322842D01*
X52671427Y-51322842D02*
X52714284Y-51365700D01*
X52714284Y-51365700D02*
X52799998Y-51408557D01*
X52799998Y-51408557D02*
X52885712Y-51408557D01*
X52885712Y-51408557D02*
X52971427Y-51365700D01*
X52971427Y-51365700D02*
X53014284Y-51322842D01*
X53014284Y-51322842D02*
X53057141Y-51237128D01*
X53057141Y-51237128D02*
X53099998Y-51065700D01*
X53099998Y-51065700D02*
X53099998Y-50851414D01*
X53099998Y-50851414D02*
X53057141Y-50679985D01*
X53057141Y-50679985D02*
X53014284Y-50594271D01*
X53014284Y-50594271D02*
X52971427Y-50551414D01*
X52971427Y-50551414D02*
X52885712Y-50508557D01*
X51771426Y-50508557D02*
X52199998Y-50508557D01*
X52199998Y-50508557D02*
X52242855Y-50937128D01*
X52242855Y-50937128D02*
X52199998Y-50894271D01*
X52199998Y-50894271D02*
X52114284Y-50851414D01*
X52114284Y-50851414D02*
X51899998Y-50851414D01*
X51899998Y-50851414D02*
X51814284Y-50894271D01*
X51814284Y-50894271D02*
X51771426Y-50937128D01*
X51771426Y-50937128D02*
X51728569Y-51022842D01*
X51728569Y-51022842D02*
X51728569Y-51237128D01*
X51728569Y-51237128D02*
X51771426Y-51322842D01*
X51771426Y-51322842D02*
X51814284Y-51365700D01*
X51814284Y-51365700D02*
X51899998Y-51408557D01*
X51899998Y-51408557D02*
X52114284Y-51408557D01*
X52114284Y-51408557D02*
X52199998Y-51365700D01*
X52199998Y-51365700D02*
X52242855Y-51322842D01*
X51342855Y-51322842D02*
X51299998Y-51365700D01*
X51299998Y-51365700D02*
X51342855Y-51408557D01*
X51342855Y-51408557D02*
X51385712Y-51365700D01*
X51385712Y-51365700D02*
X51342855Y-51322842D01*
X51342855Y-51322842D02*
X51342855Y-51408557D01*
X51342855Y-50851414D02*
X51299998Y-50894271D01*
X51299998Y-50894271D02*
X51342855Y-50937128D01*
X51342855Y-50937128D02*
X51385712Y-50894271D01*
X51385712Y-50894271D02*
X51342855Y-50851414D01*
X51342855Y-50851414D02*
X51342855Y-50937128D01*
X50357141Y-50508557D02*
X49842856Y-50508557D01*
X50099998Y-51408557D02*
X50099998Y-50508557D01*
X49371427Y-50508557D02*
X49199999Y-50508557D01*
X49199999Y-50508557D02*
X49114284Y-50551414D01*
X49114284Y-50551414D02*
X49028570Y-50637128D01*
X49028570Y-50637128D02*
X48985713Y-50808557D01*
X48985713Y-50808557D02*
X48985713Y-51108557D01*
X48985713Y-51108557D02*
X49028570Y-51279985D01*
X49028570Y-51279985D02*
X49114284Y-51365700D01*
X49114284Y-51365700D02*
X49199999Y-51408557D01*
X49199999Y-51408557D02*
X49371427Y-51408557D01*
X49371427Y-51408557D02*
X49457142Y-51365700D01*
X49457142Y-51365700D02*
X49542856Y-51279985D01*
X49542856Y-51279985D02*
X49585713Y-51108557D01*
X49585713Y-51108557D02*
X49585713Y-50808557D01*
X49585713Y-50808557D02*
X49542856Y-50637128D01*
X49542856Y-50637128D02*
X49457142Y-50551414D01*
X49457142Y-50551414D02*
X49371427Y-50508557D01*
X48599999Y-50508557D02*
X48599999Y-51237128D01*
X48599999Y-51237128D02*
X48557142Y-51322842D01*
X48557142Y-51322842D02*
X48514285Y-51365700D01*
X48514285Y-51365700D02*
X48428570Y-51408557D01*
X48428570Y-51408557D02*
X48257142Y-51408557D01*
X48257142Y-51408557D02*
X48171427Y-51365700D01*
X48171427Y-51365700D02*
X48128570Y-51322842D01*
X48128570Y-51322842D02*
X48085713Y-51237128D01*
X48085713Y-51237128D02*
X48085713Y-50508557D01*
X47142856Y-51322842D02*
X47185713Y-51365700D01*
X47185713Y-51365700D02*
X47314285Y-51408557D01*
X47314285Y-51408557D02*
X47399999Y-51408557D01*
X47399999Y-51408557D02*
X47528570Y-51365700D01*
X47528570Y-51365700D02*
X47614285Y-51279985D01*
X47614285Y-51279985D02*
X47657142Y-51194271D01*
X47657142Y-51194271D02*
X47699999Y-51022842D01*
X47699999Y-51022842D02*
X47699999Y-50894271D01*
X47699999Y-50894271D02*
X47657142Y-50722842D01*
X47657142Y-50722842D02*
X47614285Y-50637128D01*
X47614285Y-50637128D02*
X47528570Y-50551414D01*
X47528570Y-50551414D02*
X47399999Y-50508557D01*
X47399999Y-50508557D02*
X47314285Y-50508557D01*
X47314285Y-50508557D02*
X47185713Y-50551414D01*
X47185713Y-50551414D02*
X47142856Y-50594271D01*
X46757142Y-51408557D02*
X46757142Y-50508557D01*
X46757142Y-50937128D02*
X46242856Y-50937128D01*
X46242856Y-51408557D02*
X46242856Y-50508557D01*
X45257142Y-50508557D02*
X44742857Y-50508557D01*
X44999999Y-51408557D02*
X44999999Y-50508557D01*
X44442857Y-51408557D02*
X44442857Y-50508557D01*
X44442857Y-50937128D02*
X43928571Y-50937128D01*
X43928571Y-51408557D02*
X43928571Y-50508557D01*
X43500000Y-50937128D02*
X43200000Y-50937128D01*
X43071428Y-51408557D02*
X43500000Y-51408557D01*
X43500000Y-51408557D02*
X43500000Y-50508557D01*
X43500000Y-50508557D02*
X43071428Y-50508557D01*
X42042857Y-51365700D02*
X41914286Y-51408557D01*
X41914286Y-51408557D02*
X41700000Y-51408557D01*
X41700000Y-51408557D02*
X41614286Y-51365700D01*
X41614286Y-51365700D02*
X41571428Y-51322842D01*
X41571428Y-51322842D02*
X41528571Y-51237128D01*
X41528571Y-51237128D02*
X41528571Y-51151414D01*
X41528571Y-51151414D02*
X41571428Y-51065700D01*
X41571428Y-51065700D02*
X41614286Y-51022842D01*
X41614286Y-51022842D02*
X41700000Y-50979985D01*
X41700000Y-50979985D02*
X41871428Y-50937128D01*
X41871428Y-50937128D02*
X41957143Y-50894271D01*
X41957143Y-50894271D02*
X42000000Y-50851414D01*
X42000000Y-50851414D02*
X42042857Y-50765700D01*
X42042857Y-50765700D02*
X42042857Y-50679985D01*
X42042857Y-50679985D02*
X42000000Y-50594271D01*
X42000000Y-50594271D02*
X41957143Y-50551414D01*
X41957143Y-50551414D02*
X41871428Y-50508557D01*
X41871428Y-50508557D02*
X41657143Y-50508557D01*
X41657143Y-50508557D02*
X41528571Y-50551414D01*
X41142857Y-51408557D02*
X41142857Y-50508557D01*
X40285714Y-51408557D02*
X40714286Y-51408557D01*
X40714286Y-51408557D02*
X40714286Y-50508557D01*
X39985715Y-50937128D02*
X39685715Y-50937128D01*
X39557143Y-51408557D02*
X39985715Y-51408557D01*
X39985715Y-51408557D02*
X39985715Y-50508557D01*
X39985715Y-50508557D02*
X39557143Y-50508557D01*
X39171429Y-51408557D02*
X39171429Y-50508557D01*
X39171429Y-50508557D02*
X38657143Y-51408557D01*
X38657143Y-51408557D02*
X38657143Y-50508557D01*
X37714286Y-51322842D02*
X37757143Y-51365700D01*
X37757143Y-51365700D02*
X37885715Y-51408557D01*
X37885715Y-51408557D02*
X37971429Y-51408557D01*
X37971429Y-51408557D02*
X38100000Y-51365700D01*
X38100000Y-51365700D02*
X38185715Y-51279985D01*
X38185715Y-51279985D02*
X38228572Y-51194271D01*
X38228572Y-51194271D02*
X38271429Y-51022842D01*
X38271429Y-51022842D02*
X38271429Y-50894271D01*
X38271429Y-50894271D02*
X38228572Y-50722842D01*
X38228572Y-50722842D02*
X38185715Y-50637128D01*
X38185715Y-50637128D02*
X38100000Y-50551414D01*
X38100000Y-50551414D02*
X37971429Y-50508557D01*
X37971429Y-50508557D02*
X37885715Y-50508557D01*
X37885715Y-50508557D02*
X37757143Y-50551414D01*
X37757143Y-50551414D02*
X37714286Y-50594271D01*
X37328572Y-50937128D02*
X37028572Y-50937128D01*
X36900000Y-51408557D02*
X37328572Y-51408557D01*
X37328572Y-51408557D02*
X37328572Y-50508557D01*
X37328572Y-50508557D02*
X36900000Y-50508557D01*
X55432141Y-45469450D02*
X55267855Y-45524211D01*
X55267855Y-45524211D02*
X54994046Y-45524211D01*
X54994046Y-45524211D02*
X54884522Y-45469450D01*
X54884522Y-45469450D02*
X54829760Y-45414688D01*
X54829760Y-45414688D02*
X54774998Y-45305164D01*
X54774998Y-45305164D02*
X54774998Y-45195640D01*
X54774998Y-45195640D02*
X54829760Y-45086116D01*
X54829760Y-45086116D02*
X54884522Y-45031354D01*
X54884522Y-45031354D02*
X54994046Y-44976592D01*
X54994046Y-44976592D02*
X55213093Y-44921830D01*
X55213093Y-44921830D02*
X55322617Y-44867069D01*
X55322617Y-44867069D02*
X55377379Y-44812307D01*
X55377379Y-44812307D02*
X55432141Y-44702783D01*
X55432141Y-44702783D02*
X55432141Y-44593259D01*
X55432141Y-44593259D02*
X55377379Y-44483735D01*
X55377379Y-44483735D02*
X55322617Y-44428973D01*
X55322617Y-44428973D02*
X55213093Y-44374211D01*
X55213093Y-44374211D02*
X54939284Y-44374211D01*
X54939284Y-44374211D02*
X54774998Y-44428973D01*
X54282141Y-45524211D02*
X54282141Y-44374211D01*
X53132141Y-44428973D02*
X53241665Y-44374211D01*
X53241665Y-44374211D02*
X53405951Y-44374211D01*
X53405951Y-44374211D02*
X53570236Y-44428973D01*
X53570236Y-44428973D02*
X53679760Y-44538497D01*
X53679760Y-44538497D02*
X53734522Y-44648021D01*
X53734522Y-44648021D02*
X53789284Y-44867069D01*
X53789284Y-44867069D02*
X53789284Y-45031354D01*
X53789284Y-45031354D02*
X53734522Y-45250402D01*
X53734522Y-45250402D02*
X53679760Y-45359926D01*
X53679760Y-45359926D02*
X53570236Y-45469450D01*
X53570236Y-45469450D02*
X53405951Y-45524211D01*
X53405951Y-45524211D02*
X53296427Y-45524211D01*
X53296427Y-45524211D02*
X53132141Y-45469450D01*
X53132141Y-45469450D02*
X53077379Y-45414688D01*
X53077379Y-45414688D02*
X53077379Y-45031354D01*
X53077379Y-45031354D02*
X53296427Y-45031354D01*
X52584522Y-45524211D02*
X52584522Y-44374211D01*
X52584522Y-44374211D02*
X51927379Y-45524211D01*
X51927379Y-45524211D02*
X51927379Y-44374211D01*
X51434522Y-45195640D02*
X50886903Y-45195640D01*
X51544046Y-45524211D02*
X51160712Y-44374211D01*
X51160712Y-44374211D02*
X50777379Y-45524211D01*
X49846427Y-45524211D02*
X50394046Y-45524211D01*
X50394046Y-45524211D02*
X50394046Y-44374211D01*
X48641666Y-45195640D02*
X48094047Y-45195640D01*
X48751190Y-45524211D02*
X48367856Y-44374211D01*
X48367856Y-44374211D02*
X47984523Y-45524211D01*
X46944047Y-45524211D02*
X47327380Y-44976592D01*
X47601190Y-45524211D02*
X47601190Y-44374211D01*
X47601190Y-44374211D02*
X47163095Y-44374211D01*
X47163095Y-44374211D02*
X47053571Y-44428973D01*
X47053571Y-44428973D02*
X46998809Y-44483735D01*
X46998809Y-44483735D02*
X46944047Y-44593259D01*
X46944047Y-44593259D02*
X46944047Y-44757545D01*
X46944047Y-44757545D02*
X46998809Y-44867069D01*
X46998809Y-44867069D02*
X47053571Y-44921830D01*
X47053571Y-44921830D02*
X47163095Y-44976592D01*
X47163095Y-44976592D02*
X47601190Y-44976592D01*
X45794047Y-45414688D02*
X45848809Y-45469450D01*
X45848809Y-45469450D02*
X46013095Y-45524211D01*
X46013095Y-45524211D02*
X46122619Y-45524211D01*
X46122619Y-45524211D02*
X46286904Y-45469450D01*
X46286904Y-45469450D02*
X46396428Y-45359926D01*
X46396428Y-45359926D02*
X46451190Y-45250402D01*
X46451190Y-45250402D02*
X46505952Y-45031354D01*
X46505952Y-45031354D02*
X46505952Y-44867069D01*
X46505952Y-44867069D02*
X46451190Y-44648021D01*
X46451190Y-44648021D02*
X46396428Y-44538497D01*
X46396428Y-44538497D02*
X46286904Y-44428973D01*
X46286904Y-44428973D02*
X46122619Y-44374211D01*
X46122619Y-44374211D02*
X46013095Y-44374211D01*
X46013095Y-44374211D02*
X45848809Y-44428973D01*
X45848809Y-44428973D02*
X45794047Y-44483735D01*
X45301190Y-45524211D02*
X45301190Y-44374211D01*
X45301190Y-44921830D02*
X44644047Y-44921830D01*
X44644047Y-45524211D02*
X44644047Y-44374211D01*
X44096428Y-45524211D02*
X44096428Y-44374211D01*
X43713095Y-44374211D02*
X43329761Y-45524211D01*
X43329761Y-45524211D02*
X42946428Y-44374211D01*
X42563095Y-44921830D02*
X42179762Y-44921830D01*
X42015476Y-45524211D02*
X42563095Y-45524211D01*
X42563095Y-45524211D02*
X42563095Y-44374211D01*
X42563095Y-44374211D02*
X42015476Y-44374211D01*
X39825000Y-44319450D02*
X40810715Y-45798021D01*
X38620238Y-44319450D02*
X39605953Y-45798021D01*
X37141667Y-44374211D02*
X37032144Y-44374211D01*
X37032144Y-44374211D02*
X36922620Y-44428973D01*
X36922620Y-44428973D02*
X36867858Y-44483735D01*
X36867858Y-44483735D02*
X36813096Y-44593259D01*
X36813096Y-44593259D02*
X36758334Y-44812307D01*
X36758334Y-44812307D02*
X36758334Y-45086116D01*
X36758334Y-45086116D02*
X36813096Y-45305164D01*
X36813096Y-45305164D02*
X36867858Y-45414688D01*
X36867858Y-45414688D02*
X36922620Y-45469450D01*
X36922620Y-45469450D02*
X37032144Y-45524211D01*
X37032144Y-45524211D02*
X37141667Y-45524211D01*
X37141667Y-45524211D02*
X37251191Y-45469450D01*
X37251191Y-45469450D02*
X37305953Y-45414688D01*
X37305953Y-45414688D02*
X37360715Y-45305164D01*
X37360715Y-45305164D02*
X37415477Y-45086116D01*
X37415477Y-45086116D02*
X37415477Y-44812307D01*
X37415477Y-44812307D02*
X37360715Y-44593259D01*
X37360715Y-44593259D02*
X37305953Y-44483735D01*
X37305953Y-44483735D02*
X37251191Y-44428973D01*
X37251191Y-44428973D02*
X37141667Y-44374211D01*
X36046429Y-44374211D02*
X35936906Y-44374211D01*
X35936906Y-44374211D02*
X35827382Y-44428973D01*
X35827382Y-44428973D02*
X35772620Y-44483735D01*
X35772620Y-44483735D02*
X35717858Y-44593259D01*
X35717858Y-44593259D02*
X35663096Y-44812307D01*
X35663096Y-44812307D02*
X35663096Y-45086116D01*
X35663096Y-45086116D02*
X35717858Y-45305164D01*
X35717858Y-45305164D02*
X35772620Y-45414688D01*
X35772620Y-45414688D02*
X35827382Y-45469450D01*
X35827382Y-45469450D02*
X35936906Y-45524211D01*
X35936906Y-45524211D02*
X36046429Y-45524211D01*
X36046429Y-45524211D02*
X36155953Y-45469450D01*
X36155953Y-45469450D02*
X36210715Y-45414688D01*
X36210715Y-45414688D02*
X36265477Y-45305164D01*
X36265477Y-45305164D02*
X36320239Y-45086116D01*
X36320239Y-45086116D02*
X36320239Y-44812307D01*
X36320239Y-44812307D02*
X36265477Y-44593259D01*
X36265477Y-44593259D02*
X36210715Y-44483735D01*
X36210715Y-44483735D02*
X36155953Y-44428973D01*
X36155953Y-44428973D02*
X36046429Y-44374211D01*
X34567858Y-45524211D02*
X35225001Y-45524211D01*
X34896429Y-45524211D02*
X34896429Y-44374211D01*
X34896429Y-44374211D02*
X35005953Y-44538497D01*
X35005953Y-44538497D02*
X35115477Y-44648021D01*
X35115477Y-44648021D02*
X35225001Y-44702783D01*
D11*
X72304761Y-61563335D02*
X72038094Y-62363335D01*
X72038094Y-62363335D02*
X71771428Y-61563335D01*
X71085714Y-62363335D02*
X71542857Y-62363335D01*
X71314285Y-62363335D02*
X71314285Y-61563335D01*
X71314285Y-61563335D02*
X71390476Y-61677620D01*
X71390476Y-61677620D02*
X71466666Y-61753811D01*
X71466666Y-61753811D02*
X71542857Y-61791906D01*
X70133332Y-62363335D02*
X70133332Y-61563335D01*
X70133332Y-61563335D02*
X69828570Y-61563335D01*
X69828570Y-61563335D02*
X69752380Y-61601430D01*
X69752380Y-61601430D02*
X69714285Y-61639525D01*
X69714285Y-61639525D02*
X69676189Y-61715716D01*
X69676189Y-61715716D02*
X69676189Y-61830001D01*
X69676189Y-61830001D02*
X69714285Y-61906192D01*
X69714285Y-61906192D02*
X69752380Y-61944287D01*
X69752380Y-61944287D02*
X69828570Y-61982382D01*
X69828570Y-61982382D02*
X70133332Y-61982382D01*
X68876189Y-62363335D02*
X69142856Y-61982382D01*
X69333332Y-62363335D02*
X69333332Y-61563335D01*
X69333332Y-61563335D02*
X69028570Y-61563335D01*
X69028570Y-61563335D02*
X68952380Y-61601430D01*
X68952380Y-61601430D02*
X68914285Y-61639525D01*
X68914285Y-61639525D02*
X68876189Y-61715716D01*
X68876189Y-61715716D02*
X68876189Y-61830001D01*
X68876189Y-61830001D02*
X68914285Y-61906192D01*
X68914285Y-61906192D02*
X68952380Y-61944287D01*
X68952380Y-61944287D02*
X69028570Y-61982382D01*
X69028570Y-61982382D02*
X69333332Y-61982382D01*
X68380951Y-61563335D02*
X68228570Y-61563335D01*
X68228570Y-61563335D02*
X68152380Y-61601430D01*
X68152380Y-61601430D02*
X68076189Y-61677620D01*
X68076189Y-61677620D02*
X68038094Y-61830001D01*
X68038094Y-61830001D02*
X68038094Y-62096668D01*
X68038094Y-62096668D02*
X68076189Y-62249049D01*
X68076189Y-62249049D02*
X68152380Y-62325240D01*
X68152380Y-62325240D02*
X68228570Y-62363335D01*
X68228570Y-62363335D02*
X68380951Y-62363335D01*
X68380951Y-62363335D02*
X68457142Y-62325240D01*
X68457142Y-62325240D02*
X68533332Y-62249049D01*
X68533332Y-62249049D02*
X68571428Y-62096668D01*
X68571428Y-62096668D02*
X68571428Y-61830001D01*
X68571428Y-61830001D02*
X68533332Y-61677620D01*
X68533332Y-61677620D02*
X68457142Y-61601430D01*
X68457142Y-61601430D02*
X68380951Y-61563335D01*
X67809523Y-61563335D02*
X67352380Y-61563335D01*
X67580952Y-62363335D02*
X67580952Y-61563335D01*
X66933332Y-61563335D02*
X66780951Y-61563335D01*
X66780951Y-61563335D02*
X66704761Y-61601430D01*
X66704761Y-61601430D02*
X66628570Y-61677620D01*
X66628570Y-61677620D02*
X66590475Y-61830001D01*
X66590475Y-61830001D02*
X66590475Y-62096668D01*
X66590475Y-62096668D02*
X66628570Y-62249049D01*
X66628570Y-62249049D02*
X66704761Y-62325240D01*
X66704761Y-62325240D02*
X66780951Y-62363335D01*
X66780951Y-62363335D02*
X66933332Y-62363335D01*
X66933332Y-62363335D02*
X67009523Y-62325240D01*
X67009523Y-62325240D02*
X67085713Y-62249049D01*
X67085713Y-62249049D02*
X67123809Y-62096668D01*
X67123809Y-62096668D02*
X67123809Y-61830001D01*
X67123809Y-61830001D02*
X67085713Y-61677620D01*
X67085713Y-61677620D02*
X67009523Y-61601430D01*
X67009523Y-61601430D02*
X66933332Y-61563335D01*
X66361904Y-61563335D02*
X65904761Y-61563335D01*
X66133333Y-62363335D02*
X66133333Y-61563335D01*
X65485713Y-61982382D02*
X65485713Y-62363335D01*
X65752380Y-61563335D02*
X65485713Y-61982382D01*
X65485713Y-61982382D02*
X65219047Y-61563335D01*
X64952380Y-62363335D02*
X64952380Y-61563335D01*
X64952380Y-61563335D02*
X64647618Y-61563335D01*
X64647618Y-61563335D02*
X64571428Y-61601430D01*
X64571428Y-61601430D02*
X64533333Y-61639525D01*
X64533333Y-61639525D02*
X64495237Y-61715716D01*
X64495237Y-61715716D02*
X64495237Y-61830001D01*
X64495237Y-61830001D02*
X64533333Y-61906192D01*
X64533333Y-61906192D02*
X64571428Y-61944287D01*
X64571428Y-61944287D02*
X64647618Y-61982382D01*
X64647618Y-61982382D02*
X64952380Y-61982382D01*
X64152380Y-61944287D02*
X63885714Y-61944287D01*
X63771428Y-62363335D02*
X64152380Y-62363335D01*
X64152380Y-62363335D02*
X64152380Y-61563335D01*
X64152380Y-61563335D02*
X63771428Y-61563335D01*
M02*
